#N canvas 1344 93 450 766 10;
#X obj 38 189 gemwin;
#X msg 62 85 reset \, dimen 1000 500 \, create \, 1;
#X msg 125 123 create \, 1;
#X msg 169 153 0 \, destroy;
#X msg 22 32 reset \, dimen 500 1000;
#X obj 40 232 tgl 15 0 empty empty empty 17 7 0 10 -262144 -1 -1 1
1;
#X obj 40 259 gemhead;
#X msg 55 289 draw fill;
#X msg 56 310 draw line;
#X msg 56 334 draw point;
#X obj 181 252 tgl 15 0 empty empty empty 17 7 0 10 -262144 -1 -1 1
1;
#X obj 181 272 metro 10;
#X obj 181 293 f;
#X obj 181 314 mod 128;
#X obj 114 369 hsl 128 15 0 127 0 0 empty empty empty -2 -8 0 10 -262144
-1 -1 600 1;
#X obj 207 293 + 1;
#X obj 111 389 / 40;
#X floatatom 111 410 5 0 0 0 - - -;
#X obj 161 390 expr 3.175 - $f1;
#X floatatom 161 411 5 0 0 0 - - -;
#X obj 40 459 rectangle 0 0;
#X obj 39 492 tgl 15 0 empty empty empty 17 7 0 10 -262144 -1 -1 1
1;
#X obj 39 519 gemhead;
#X msg 54 549 draw fill;
#X msg 55 570 draw line;
#X msg 55 594 draw point;
#X obj 127 623 tgl 15 0 empty empty empty 17 7 0 10 -262144 -1 -1 1
1;
#X obj 127 643 metro 10;
#X obj 127 664 f;
#X obj 153 664 + 1;
#X obj 39 719 cylinder 2 0;
#X obj 127 685 mod 50;
#X msg 51 654 width 1;
#X floatatom 127 706 5 0 0 0 - - -;
#X floatatom 76 694 5 0 0 0 - - -;
#X connect 1 0 0 0;
#X connect 2 0 0 0;
#X connect 3 0 0 0;
#X connect 4 0 0 0;
#X connect 5 0 6 0;
#X connect 6 0 20 0;
#X connect 7 0 20 0;
#X connect 8 0 20 0;
#X connect 9 0 20 0;
#X connect 10 0 11 0;
#X connect 11 0 12 0;
#X connect 12 0 13 0;
#X connect 12 0 15 0;
#X connect 13 0 14 0;
#X connect 14 0 16 0;
#X connect 15 0 12 1;
#X connect 16 0 17 0;
#X connect 17 0 18 0;
#X connect 17 0 20 1;
#X connect 18 0 19 0;
#X connect 19 0 20 2;
#X connect 21 0 22 0;
#X connect 22 0 30 0;
#X connect 23 0 30 0;
#X connect 24 0 30 0;
#X connect 25 0 30 0;
#X connect 26 0 27 0;
#X connect 27 0 28 0;
#X connect 28 0 29 0;
#X connect 28 0 31 0;
#X connect 29 0 28 1;
#X connect 31 0 33 0;
#X connect 32 0 30 0;
#X connect 33 0 30 2;
#X connect 34 0 30 1;
