#N canvas 637 92 928 875 10;
#X obj 3 56 gemwin;
#X msg 4 8 reset \, dimen 1000 500 \, create \, 1;
#X msg 18 33 0 \, destroy;
#X msg 227 5 draw line;
#X obj 359 121 tgl 15 0 empty empty empty 17 7 0 10 -262144 -1 -1 0
1;
#X obj 486 54 tgl 15 0 empty empty empty 17 7 0 10 -262144 -1 -1 0
1;
#X obj 486 72 metro 100;
#X floatatom 539 53 5 0 0 0 - - -;
#X obj 486 91 f;
#X obj 512 91 + 1;
#X obj 537 91 % 3;
#X obj 359 180 alpha;
#X obj 8 138 colorRGB;
#X obj 359 161 color 0 0 0 0;
#X obj 8 158 alpha;
#X obj 85 94 hsl 128 15 0 127 0 0 empty empty empty -2 -8 0 10 -262144
-1 -1 9650 1;
#X obj 82 112 / 128;
#X floatatom 82 131 5 0 0 0 - - -;
#X obj 125 115 hsl 128 15 0 127 0 0 empty empty empty -2 -8 0 10 -262144
-1 -1 6450 1;
#X obj 122 132 / 128;
#X floatatom 122 152 5 0 0 0 - - -;
#X obj 165 134 hsl 128 15 0 127 0 0 empty empty empty -2 -8 0 10 -262144
-1 -1 9600 1;
#X obj 162 151 / 128;
#X floatatom 162 171 5 0 0 0 - - -;
#X obj 203 153 hsl 128 15 0 127 0 0 empty empty empty -2 -8 0 10 -262144
-1 -1 12750 1;
#X obj 200 170 / 128;
#X floatatom 200 190 5 0 0 0 - - -;
#X msg 451 138 0.75 0.5 0.75 1;
#X obj 8 177 cylinder 1.9;
#X obj 486 111 route 2 1 0;
#X obj 358 201 cylinder 2;
#X msg 463 164 0.75 0.5 0.75 0.7;
#X msg 482 191 0.75 0.5 0.75 0.4;
#X obj 10 252 gemhead 51;
#X obj 8 119 gemhead 49;
#X floatatom 74 294 5 0 0 0 - - -;
#X obj 10 294 translate;
#X obj 10 432 cube 1;
#X msg 129 242 1 0 0;
#X msg 141 268 0 1 0;
#X msg 160 295 0 0 1;
#X msg 143 320 2 2 0;
#X obj 233 263 colorRGB 1 1 0 0.7;
#X obj 233 283 alpha;
#X obj 233 302 translateXYZ;
#X obj 359 243 phasor~ 1;
#X obj 359 282 snapshot~;
#X obj 430 247 tgl 15 0 empty empty empty 17 7 0 10 -262144 -1 -1 0
1;
#X obj 430 264 metro 50;
#X floatatom 359 302 5 0 0 0 - - -;
#X floatatom 323 302 5 0 0 0 - - -;
#X floatatom 394 302 5 0 0 0 - - -;
#X obj 233 322 cube 1;
#X obj 359 263 *~ -5;
#X obj 10 403 rotate;
#X msg 86 407 0 1 0;
#X msg 105 434 0 0 1;
#X msg 74 381 1 1 0;
#X floatatom 28 379 5 0 0 0 - - -;
#X obj 28 358 f;
#X obj 54 358 + 1;
#X obj 28 320 tgl 15 0 empty empty empty 17 7 0 10 -262144 -1 -1 0
1;
#X obj 28 339 metro 10;
#X obj 79 358 % 360;
#X obj 11 272 color 1 0.5 1;
#X obj 8 99 tgl 15 0 empty empty empty 17 7 0 10 -262144 -1 -1 0 1
;
#X obj 11 233 tgl 15 0 empty empty empty 17 7 0 10 -262144 -1 -1 0
1;
#X obj 232 225 tgl 15 0 empty empty empty 17 7 0 10 -262144 -1 -1 0
1;
#X obj 191 353 tgl 15 0 empty empty empty 17 7 0 10 -262144 -1 -1 0
1;
#X obj 233 244 gemhead 52;
#X obj 191 370 gemhead 53;
#X obj 191 399 rotateXYZ;
#X obj 191 438 color 1 1 0;
#X obj 191 458 cube 1;
#X floatatom 264 369 5 0 0 0 - - -;
#X floatatom 299 368 5 0 0 0 - - -;
#X floatatom 334 369 5 0 0 0 - - -;
#X obj 370 349 tgl 15 0 empty empty empty 17 7 0 10 -262144 -1 -1 0
1;
#X obj 370 407 rotateXYZ;
#X obj 370 450 cube 1;
#X floatatom 434 408 5 0 0 0 - - -;
#X floatatom 470 407 5 0 0 0 - - -;
#X floatatom 505 408 5 0 0 0 - - -;
#X obj 370 367 gemhead 54;
#X obj 370 430 color 1 1 1;
#X obj 191 419 translateXYZ 1 0 0;
#X obj 370 386 translateXYZ 1 0 0;
#X obj 14 520 color 1 1 0;
#X obj 14 541 rotateXYZ 0 0 0;
#X obj 14 560 translateXYZ 3 0 0;
#X floatatom 88 519 5 0 0 0 - - -;
#X obj 14 580 square 0.8;
#X obj 13 483 tgl 15 0 empty empty empty 17 7 0 10 -262144 -1 -1 0
1;
#X obj 13 500 gemhead 55;
#X obj 143 486 tgl 15 0 empty empty empty 17 7 0 10 -262144 -1 -1 0
1;
#X obj 143 503 gemhead 56;
#X obj 143 542 square;
#X obj 143 523 translateXYZ 3 0 0;
#X obj 277 485 hsl 128 15 0 127 0 0 empty empty empty -2 -8 0 10 -262144
-1 -1 0 1;
#X obj 274 503 / 20.25;
#X floatatom 274 522 5 0 0 0 - - -;
#X obj 274 541 cos;
#X obj 274 560 * 3;
#X obj 301 542 sin;
#X obj 301 562 * 3;
#X obj 359 140 gemhead 50;
#X obj 14 609 tgl 15 0 empty empty empty 17 7 0 10 -262144 -1 -1 1
1;
#X msg 14 626 lighting \$1;
#X obj 14 646 gemwin;
#X msg 95 625 create \, 1;
#X msg 160 625 0 \, destroy;
#X obj 255 635 rotateXYZ 30 30 30;
#X obj 255 654 cube 1;
#X floatatom 323 616 5 0 0 0 - - -;
#X floatatom 357 616 5 0 0 0 - - -;
#X floatatom 392 616 5 0 0 0 - - -;
#X obj 255 597 tgl 15 0 empty empty empty 17 7 0 10 -262144 -1 -1 0
1;
#X obj 85 665 tgl 15 0 empty empty empty 17 7 0 10 -262144 -1 -1 0
1;
#X obj 85 682 gemhead 1;
#X obj 85 702 rotateXYZ 0 0 0;
#X obj 85 721 translateXYZ 0 1 2;
#X obj 17 701 tgl 15 0 empty empty empty 17 7 0 10 -262144 -1 -1 0
1;
#X msg 17 719 debug \$1;
#X floatatom 147 682 5 0 0 0 - - -;
#X floatatom 181 682 5 0 0 0 - - -;
#X floatatom 216 682 5 0 0 0 - - -;
#X floatatom 182 703 5 0 0 0 - - -;
#X floatatom 216 703 5 0 0 0 - - -;
#X floatatom 251 703 5 0 0 0 - - -;
#X obj 294 699 tgl 15 0 empty empty empty 17 7 0 10 -262144 -1 -1 1
1;
#X obj 294 736 rotate;
#X obj 395 644 vsl 15 128 0 127 0 0 empty empty empty 0 -9 0 10 -262144
-1 -1 12750 1;
#X obj 85 741 light;
#X msg 159 740 1 1 0;
#X obj 294 756 sphere 1.5 100;
#X obj 294 717 gemhead 58;
#X obj 255 614 gemhead 57;
#X obj 22 793 gemhead 99;
#X obj 22 813 world_light;
#X obj 20 879 translate 2 0 1 0;
#X obj 20 1003 diffuseRGB;
#X obj 20 1043 rotateXYZ;
#X obj 20 1062 teapot;
#X obj 37 913 hsl 128 15 0 127 0 0 empty empty empty -2 -8 0 10 -262144
-1 -1 8600 1;
#X obj 34 930 / 128;
#X obj 20 859 gemhead 59;
#X obj 131 859 gemhead 60;
#X obj 239 858 gemhead 61;
#X obj 131 878 translate 0 0 1 0;
#X obj 239 878 translate -2 0 1 0;
#X obj 114 934 hsl 128 15 0 127 0 0 empty empty empty -2 -8 0 10 -262144
-1 -1 7350 1;
#X obj 111 952 / 128;
#X obj 200 954 hsl 128 15 0 127 0 0 empty empty empty -2 -8 0 10 -262144
-1 -1 8000 1;
#X obj 197 971 / 128;
#X obj 89 1002 emissionRGB;
#X obj 165 1002 ambientRGB;
#X floatatom 35 1023 5 0 0 0 - - -;
#X floatatom 70 1024 5 0 0 0 - - -;
#X floatatom 104 1024 5 0 0 0 - - -;
#X obj 22 774 tgl 15 0 empty empty empty 17 7 0 10 -262144 -1 -1 1
1;
#X obj 18 1130 separator;
#X obj 18 1149 translate 2 0 1 0;
#X obj 18 1110 gemhead 62;
#X obj 19 1259 diffuseRGB;
#X obj 18 1310 rotateXYZ;
#X obj 18 1330 ortho;
#X obj 18 1349 teapot;
#X obj 126 1131 separator;
#X obj 126 1150 translate 0 0 1 0;
#X obj 127 1259 diffuseRGB;
#X obj 127 1278 shininess;
#X obj 127 1298 specularRGB 1 0 0;
#X floatatom 24 1287 5 0 0 0 - - -;
#X floatatom 57 1288 5 0 0 0 - - -;
#X floatatom 91 1288 5 0 0 0 - - -;
#X obj 54 1331 tgl 15 0 empty empty empty 17 7 0 10 -262144 -1 -1 0
1;
#X obj 19 1092 tgl 15 0 empty empty empty 17 7 0 10 -262144 -1 -1 0
1;
#X obj 190 1279 hsl 128 15 0 127 0 0 empty empty empty -2 -8 0 10 -262144
-1 -1 2550 1;
#X obj 43 1179 hsl 128 15 0 127 0 0 empty empty empty -2 -8 0 10 -262144
-1 -1 1300 1;
#X obj 40 1196 / 128;
#X obj 120 1200 hsl 128 15 0 127 0 0 empty empty empty -2 -8 0 10 -262144
-1 -1 7150 1;
#X obj 117 1218 / 128;
#X obj 206 1220 hsl 128 15 0 127 0 0 empty empty empty -2 -8 0 10 -262144
-1 -1 5150 1;
#X obj 203 1237 / 128;
#X obj 132 837 tgl 15 0 empty empty empty 17 7 0 10 -262144 -1 -1 0
1;
#X connect 1 0 0 0;
#X connect 2 0 0 0;
#X connect 3 0 28 0;
#X connect 3 0 30 0;
#X connect 3 0 37 0;
#X connect 3 0 52 0;
#X connect 3 0 73 0;
#X connect 3 0 79 0;
#X connect 4 0 105 0;
#X connect 5 0 6 0;
#X connect 6 0 8 0;
#X connect 7 0 6 1;
#X connect 8 0 9 0;
#X connect 8 0 29 0;
#X connect 9 0 10 0;
#X connect 10 0 8 1;
#X connect 11 0 30 0;
#X connect 12 0 14 0;
#X connect 13 0 11 0;
#X connect 14 0 28 0;
#X connect 15 0 16 0;
#X connect 16 0 17 0;
#X connect 17 0 12 1;
#X connect 18 0 19 0;
#X connect 19 0 20 0;
#X connect 20 0 12 2;
#X connect 21 0 22 0;
#X connect 22 0 23 0;
#X connect 23 0 12 3;
#X connect 24 0 25 0;
#X connect 25 0 26 0;
#X connect 26 0 12 4;
#X connect 27 0 13 1;
#X connect 29 0 27 0;
#X connect 29 1 31 0;
#X connect 29 2 32 0;
#X connect 31 0 13 1;
#X connect 32 0 13 1;
#X connect 33 0 64 0;
#X connect 34 0 12 0;
#X connect 35 0 36 1;
#X connect 36 0 54 0;
#X connect 38 0 36 2;
#X connect 39 0 36 2;
#X connect 40 0 36 2;
#X connect 41 0 36 2;
#X connect 42 0 43 0;
#X connect 43 0 44 0;
#X connect 44 0 52 0;
#X connect 45 0 53 0;
#X connect 46 0 51 0;
#X connect 47 0 48 0;
#X connect 48 0 46 0;
#X connect 49 0 44 2;
#X connect 50 0 44 1;
#X connect 51 0 44 3;
#X connect 53 0 46 0;
#X connect 54 0 37 0;
#X connect 55 0 54 2;
#X connect 56 0 54 2;
#X connect 57 0 54 2;
#X connect 58 0 54 1;
#X connect 59 0 60 0;
#X connect 59 0 58 0;
#X connect 60 0 63 0;
#X connect 61 0 62 0;
#X connect 62 0 59 0;
#X connect 63 0 59 1;
#X connect 64 0 36 0;
#X connect 65 0 34 0;
#X connect 66 0 33 0;
#X connect 67 0 69 0;
#X connect 68 0 70 0;
#X connect 69 0 42 0;
#X connect 70 0 71 0;
#X connect 71 0 85 0;
#X connect 72 0 73 0;
#X connect 74 0 71 1;
#X connect 75 0 71 2;
#X connect 76 0 71 3;
#X connect 77 0 83 0;
#X connect 78 0 84 0;
#X connect 80 0 78 1;
#X connect 81 0 78 2;
#X connect 82 0 78 3;
#X connect 83 0 86 0;
#X connect 84 0 79 0;
#X connect 85 0 72 0;
#X connect 86 0 78 0;
#X connect 87 0 88 0;
#X connect 88 0 89 0;
#X connect 89 0 91 0;
#X connect 90 0 88 3;
#X connect 92 0 93 0;
#X connect 93 0 87 0;
#X connect 94 0 95 0;
#X connect 95 0 97 0;
#X connect 97 0 96 0;
#X connect 98 0 99 0;
#X connect 99 0 100 0;
#X connect 100 0 101 0;
#X connect 100 0 103 0;
#X connect 101 0 102 0;
#X connect 102 0 97 1;
#X connect 103 0 104 0;
#X connect 104 0 97 2;
#X connect 105 0 13 0;
#X connect 106 0 107 0;
#X connect 107 0 108 0;
#X connect 109 0 108 0;
#X connect 110 0 108 0;
#X connect 111 0 112 0;
#X connect 113 0 111 1;
#X connect 114 0 111 2;
#X connect 115 0 111 3;
#X connect 116 0 136 0;
#X connect 117 0 118 0;
#X connect 118 0 119 0;
#X connect 119 0 120 0;
#X connect 120 0 132 0;
#X connect 121 0 122 0;
#X connect 122 0 132 0;
#X connect 123 0 119 1;
#X connect 124 0 119 2;
#X connect 125 0 119 3;
#X connect 126 0 120 1;
#X connect 127 0 120 2;
#X connect 128 0 120 3;
#X connect 129 0 135 0;
#X connect 130 0 134 0;
#X connect 131 0 130 1;
#X connect 133 0 132 1;
#X connect 135 0 130 0;
#X connect 136 0 111 0;
#X connect 137 0 138 0;
#X connect 139 0 140 0;
#X connect 140 0 141 0;
#X connect 141 0 142 0;
#X connect 143 0 144 0;
#X connect 144 0 140 1;
#X connect 144 0 154 1;
#X connect 144 0 155 1;
#X connect 145 0 139 0;
#X connect 146 0 148 0;
#X connect 147 0 149 0;
#X connect 148 0 154 0;
#X connect 149 0 155 0;
#X connect 150 0 151 0;
#X connect 151 0 140 2;
#X connect 151 0 154 2;
#X connect 151 0 155 2;
#X connect 152 0 153 0;
#X connect 153 0 140 3;
#X connect 153 0 155 3;
#X connect 153 0 154 3;
#X connect 156 0 141 1;
#X connect 157 0 141 2;
#X connect 158 0 141 3;
#X connect 159 0 137 0;
#X connect 160 0 161 0;
#X connect 161 0 163 0;
#X connect 162 0 160 0;
#X connect 162 0 167 0;
#X connect 163 0 164 0;
#X connect 164 0 165 0;
#X connect 165 0 166 0;
#X connect 167 0 168 0;
#X connect 168 0 169 0;
#X connect 169 0 170 0;
#X connect 170 0 171 0;
#X connect 171 0 164 0;
#X connect 172 0 164 1;
#X connect 173 0 164 2;
#X connect 174 0 164 3;
#X connect 175 0 165 0;
#X connect 176 0 162 0;
#X connect 177 0 170 1;
#X connect 178 0 179 0;
#X connect 179 0 163 1;
#X connect 179 0 169 1;
#X connect 180 0 181 0;
#X connect 181 0 163 2;
#X connect 181 0 169 2;
#X connect 182 0 183 0;
#X connect 183 0 163 3;
#X connect 183 0 169 3;
#X connect 184 0 146 0;
#X connect 184 0 147 0;
#X connect 184 0 145 0;
