#N canvas 176 14 967 988 12;
#X obj 15 56 gemhead;
#X obj 15 180 part_head;
#X obj 358 42 gemwin;
#X msg 358 14 create \, 1;
#X obj 16 239 part_source 20;
#X obj 16 506 part_render;
#X msg 118 516 draw line;
#X msg 89 155 speed 0.3;
#X obj 16 271 part_killold 50;
#X obj 16 375 part_color;
#X obj 16 401 part_size;
#X msg 145 402 0.3;
#X msg 159 366 0 0.5 1;
#X msg 107 401 1;
#X obj 26 450 tgl 15 0 empty empty empty 17 7 0 10 -262144 -1 -1 0
1;
#X obj 16 313 part_orbitpoint 0 0 0 0.1;
#X msg 26 471 colorize \$1;
#X msg 111 367 1 1 0;
#X obj 119 450 tgl 15 0 empty empty empty 17 7 0 10 -262144 -1 -1 0
1;
#X msg 119 470 size \$1;
#X obj 16 206 part_velocity sphere 0 0 0 0.5;
#X obj 15 82 translateXYZ 1 1 0;
#X floatatom 97 55 5 0 0 0 - - -;
#X floatatom 142 55 5 0 0 0 - - -;
#X floatatom 185 56 5 0 0 0 - - -;
#X obj 15 108 rotateXYZ 10 10 0;
#X floatatom 154 84 5 0 0 0 - - -;
#X floatatom 199 84 5 0 0 0 - - -;
#X floatatom 242 85 5 0 0 0 - - -;
#X obj 16 551 sphere 0.1 2;
#X obj 282 398 part_info, f 24;
#X obj 15 32 tgl 15 0 empty empty empty 17 7 0 10 -262144 -1 -1 0 1
;
#X obj 282 203 tgl 15 0 empty empty empty 17 7 0 10 -262144 -1 -1 0
1;
#X obj 282 254 part_head;
#X obj 282 280 part_velocity sphere 0 0 0 0.5;
#X obj 282 332 part_killold 30;
#X msg 436 15 0 \, destroy;
#X msg 337 458 \$1 \$2 \$3;
#X obj 392 496 unpack 0 0 0;
#X obj 282 424 separator;
#X obj 282 570 translate 1 0 0 0;
#X obj 282 626 rotateXYZ;
#X obj 392 526 * 360;
#X obj 434 527 * 360;
#X obj 478 526 * 360;
#X floatatom 486 496 5 0 0 0 - - -;
#X msg 354 625 draw line;
#X msg 450 331 0 0.5 1;
#X msg 402 332 1 1 0;
#X obj 282 596 color, f 12;
#X floatatom 425 58 5 0 0 0 - - -;
#X msg 425 83 stereo \$1;
#X floatatom 502 57 5 0 0 0 - - -;
#X msg 502 82 stereoSep \$1;
#X floatatom 426 115 5 0 0 0 - - -;
#X msg 426 140 stereoFoc \$1;
#X obj 528 117 tgl 15 0 empty empty empty 17 7 0 10 -262144 -1 -1 0
1;
#X msg 528 137 stereoLine \$1;
#X obj 524 368 hsl 128 15 0 1 0 0 empty empty empty -2 -8 0 10 -262144
-1 -1 0 1;
#X obj 534 389 hsl 128 15 0 1 0 0 empty empty empty -2 -8 0 10 -262144
-1 -1 0 1;
#X obj 554 407 hsl 128 15 0 1 0 0 empty empty empty -2 -8 0 10 -262144
-1 -1 0 1;
#X obj 521 446 pack 0 0 0;
#X obj 521 252 hsl 128 15 0 1 0 0 empty empty empty -2 -8 0 10 -262144
-1 -1 0 1;
#X obj 531 273 hsl 128 15 0 1 0 0 empty empty empty -2 -8 0 10 -262144
-1 -1 0 1;
#X obj 551 291 hsl 128 15 0 1 0 0 empty empty empty -2 -8 0 10 -262144
-1 -1 0 1;
#X obj 518 330 pack 0 0 0;
#X obj 282 367 part_color 1 1 1 0 0 0.5 1;
#X obj 282 228 gemhead 49;
#X obj 17 686 tgl 15 0 empty empty empty 17 7 0 10 -262144 -1 -1 0
1;
#X obj 17 706 gemhead 51;
#X obj 17 732 t b a;
#X obj 17 758 pix_snap2tex;
#X obj 17 784 colorRGB 1 0 0 0.5;
#X obj 17 810 alpha;
#X obj 17 836 square 4;
#X obj 209 707 hsl 128 15 0 127 0 0 empty empty empty -2 -8 0 10 -262144
-1 -1 0 1;
#X obj 206 727 / 127;
#X obj 259 731 hsl 128 15 0 127 0 0 empty empty empty -2 -8 0 10 -262144
-1 -1 0 1;
#X obj 256 751 / 127;
#X obj 307 754 hsl 128 15 0 127 0 0 empty empty empty -2 -8 0 10 -262144
-1 -1 0 1;
#X obj 304 774 / 127;
#X obj 353 778 hsl 128 15 0 127 0 0 empty empty empty -2 -8 0 10 -262144
-1 -1 0 1;
#X obj 350 798 / 127;
#X obj 103 704 loadbang;
#X msg 138 730 500 500;
#X obj 282 652 sphere 0.1 2;
#X msg 366 252 speed 0.3;
#X msg 103 730 0 0;
#X obj 282 306 part_source 20;
#X obj 508 608 tgl 15 0 empty empty empty 17 7 0 10 -262144 -1 -1 1
1;
#X obj 508 628 gemhead 52;
#X obj 508 784 translateXYZ;
#X obj 508 810 part_head 1000;
#X obj 508 836 part_velocity sphere 0 0.1 0 0.1;
#X obj 508 862 part_source 20;
#X obj 508 888 part_killold 30;
#X obj 508 914 part_gravity 0 -0.01 0;
#X obj 508 940 part_draw;
#X msg 578 940 draw point;
#X obj 527 655 gemmouse 1 1;
#X obj 527 681 * 8;
#X obj 527 707 - 4;
#X msg 562 681 1 \$1;
#X obj 562 707 -;
#X obj 562 733 * 8;
#X obj 562 759 - 4;
#X obj 628 609 tgl 15 0 empty empty empty 17 7 0 10 -262144 -1 -1 1
1;
#X obj 628 655 t b a;
#X obj 628 681 pix_snap2tex;
#X obj 628 733 alpha;
#X obj 628 759 square 4;
#X msg 749 653 500 500;
#X msg 714 653 0 0;
#X obj 628 629 gemhead 53;
#X obj 628 707 colorRGB 1 0 0 0.888;
#X obj 769 684 hsl 128 15 0 1 0 0 empty empty empty -2 -8 0 10 -262144
-1 -1 6800 1;
#X connect 0 0 21 0;
#X connect 1 0 20 0;
#X connect 3 0 2 0;
#X connect 4 0 8 0;
#X connect 5 0 29 0;
#X connect 6 0 29 0;
#X connect 7 0 1 0;
#X connect 8 0 15 0;
#X connect 9 0 10 0;
#X connect 10 0 5 0;
#X connect 11 0 10 1;
#X connect 12 0 9 2;
#X connect 13 0 10 1;
#X connect 14 0 16 0;
#X connect 15 0 9 0;
#X connect 16 0 5 0;
#X connect 17 0 9 1;
#X connect 18 0 19 0;
#X connect 19 0 5 0;
#X connect 20 0 4 0;
#X connect 21 0 25 0;
#X connect 22 0 21 1;
#X connect 23 0 21 2;
#X connect 24 0 21 3;
#X connect 25 0 1 0;
#X connect 26 0 25 1;
#X connect 27 0 25 2;
#X connect 28 0 25 3;
#X connect 30 0 39 0;
#X connect 30 2 37 0;
#X connect 30 3 49 1;
#X connect 30 4 38 0;
#X connect 31 0 0 0;
#X connect 32 0 67 0;
#X connect 33 0 34 0;
#X connect 34 0 88 0;
#X connect 35 0 66 0;
#X connect 36 0 2 0;
#X connect 37 0 40 2;
#X connect 38 0 42 0;
#X connect 38 1 43 0;
#X connect 38 2 44 0;
#X connect 39 0 40 0;
#X connect 40 0 49 0;
#X connect 41 0 85 0;
#X connect 42 0 41 1;
#X connect 43 0 41 2;
#X connect 44 0 41 3;
#X connect 45 0 44 1;
#X connect 45 0 43 1;
#X connect 45 0 42 1;
#X connect 46 0 85 0;
#X connect 47 0 66 2;
#X connect 48 0 66 1;
#X connect 49 0 41 0;
#X connect 50 0 51 0;
#X connect 51 0 2 0;
#X connect 52 0 53 0;
#X connect 53 0 2 0;
#X connect 54 0 55 0;
#X connect 55 0 2 0;
#X connect 56 0 57 0;
#X connect 57 0 2 0;
#X connect 58 0 61 0;
#X connect 59 0 61 1;
#X connect 60 0 61 2;
#X connect 61 0 66 1;
#X connect 62 0 65 0;
#X connect 63 0 65 1;
#X connect 64 0 65 2;
#X connect 65 0 66 2;
#X connect 66 0 30 0;
#X connect 67 0 33 0;
#X connect 68 0 69 0;
#X connect 69 0 70 0;
#X connect 70 0 71 0;
#X connect 70 1 71 0;
#X connect 71 0 72 0;
#X connect 72 0 73 0;
#X connect 73 0 74 0;
#X connect 75 0 76 0;
#X connect 76 0 72 1;
#X connect 77 0 78 0;
#X connect 78 0 72 2;
#X connect 79 0 80 0;
#X connect 80 0 72 3;
#X connect 81 0 82 0;
#X connect 82 0 72 4;
#X connect 83 0 87 0;
#X connect 83 0 84 0;
#X connect 84 0 71 2;
#X connect 86 0 33 0;
#X connect 87 0 71 1;
#X connect 88 0 35 0;
#X connect 89 0 90 0;
#X connect 90 0 91 0;
#X connect 91 0 92 0;
#X connect 92 0 93 0;
#X connect 93 0 94 0;
#X connect 94 0 95 0;
#X connect 95 0 96 0;
#X connect 96 0 97 0;
#X connect 98 0 97 0;
#X connect 99 0 100 0;
#X connect 99 1 102 0;
#X connect 100 0 101 0;
#X connect 101 0 91 1;
#X connect 102 0 103 0;
#X connect 103 0 104 0;
#X connect 104 0 105 0;
#X connect 105 0 91 2;
#X connect 106 0 113 0;
#X connect 107 0 108 0;
#X connect 107 1 108 0;
#X connect 108 0 114 0;
#X connect 109 0 110 0;
#X connect 111 0 108 2;
#X connect 112 0 108 1;
#X connect 113 0 107 0;
#X connect 114 0 109 0;
#X connect 115 0 114 4;
