#N canvas 945 0 958 988 10;
#X msg 95 23 128;
#X obj 94 86 hsl 128 15 0 127 0 0 empty empty empty -2 -8 0 10 -262144
-1 -1 0 1;
#X obj 152 22 delay 1000;
#X msg 153 48 0;
#X obj 91 106 / 128;
#X msg 91 127 \$1 50;
#X obj 91 148 line~;
#X obj 42 79 *~;
#X obj 15 13 osc~ 440;
#X obj 42 100 dac~;
#X obj 241 101 *~;
#X obj 240 12 osc~ 440;
#X obj 241 122 dac~;
#X msg 312 40 1 50 1000 \, 0.5 20 2000 \, 0 1000 3000;
#X obj 353 82 tgl 15 0 empty empty empty 17 7 0 10 -262144 -1 -1 0
1;
#X obj 353 102 metro 100;
#X obj 353 123 tabwrite~ array1;
#X obj 310 61 vline~;
#N canvas 0 50 450 250 (subpatch) 0;
#X array array1 100 float 3;
#A 0 0.12829 0.137617 0.144868 0.149906 0.152624 0.152951 0.15086 0.146355
0.139484 0.130325 0.119003 0.105675 0.0905297 0.0737895 0.0557022 0.0365432
0.0166053 -0.00380312 -0.0243628 -0.0447481 -0.064634 -0.0837 -0.101635
-0.118141 -0.132942 -0.145788 -0.156455 -0.164751 -0.170518 -0.173644
-0.174055 -0.171717 -0.166638 -0.158873 -0.148522 -0.135724 -0.120659
-0.103541 -0.0846258 -0.0641968 -0.0425633 -0.0200561 0.00297461 0.0261683
0.0491593 0.0715816 0.0930729 0.113285 0.131888 0.148572 0.163055 0.175085
0.184455 0.190992 0.194569 0.195098 0.192546 0.186932 0.178317 0.166812
0.15257 0.135798 0.116742 0.0956826 0.0729359 0.0488479 0.0237903 -0.00184863
-0.0276683 -0.0532607 -0.0782182 -0.102142 -0.124645 -0.145359 -0.16394
-0.180081 -0.193505 -0.203982 -0.211317 -0.215371 -0.216057 -0.213339
-0.207233 -0.197803 -0.185177 -0.169533 -0.151096 -0.130133 -0.106956
-0.0819182 -0.0554012 -0.0278125 0.000420173 0.0288542 0.0570418 0.0845361
0.110898 0.135698 0.158536 0.179037;
#X coords 0 1 100 -1 200 140 1;
#X restore 256 171 graph;
#X obj 490 79 tgl 15 0 empty empty empty 17 7 0 10 -262144 -1 -1 1
1;
#X obj 490 99 metro 500;
#X obj 490 120 t b b;
#X obj 490 141 f;
#X obj 490 162 sel 0 1 2 3 4 5 6 7;
#X msg 487 203 67;
#X obj 487 224 mtof;
#X obj 487 245 osc~ 400;
#X obj 487 266 *~;
#X obj 487 287 dac~;
#X obj 517 141 + 1;
#X obj 544 141 % 8;
#X msg 517 202 69;
#X msg 548 202 64;
#X obj 618 227 tgl 15 0 empty empty empty 17 7 0 10 -262144 -1 -1 1
1;
#X obj 592 249 spigot;
#X msg 592 270 1 5 \, 0 100 10;
#X obj 592 291 vline~;
#X obj 101 2 bng 15 250 50 0 empty empty empty 17 7 0 10 -262144 -1
-1;
#X obj 23 278 *~;
#X obj 20 189 osc~ 440;
#X obj 21 315 dac~;
#X obj 71 257 adsr 1 20 500 50 2000;
#X obj 94 187 tgl 15 0 empty empty empty 17 7 0 10 -262144 -1 -1 0
1;
#X msg 140 169 1;
#X obj 138 194 bng 15 250 50 0 empty empty empty 17 7 0 10 -262144
-1 -1;
#X obj 138 214 delay 2000;
#X msg 138 235 0;
#X obj 89 382 hsl 128 15 0 127 0 0 empty empty empty -2 -8 0 10 -262144
-1 -1 0 1;
#X obj 86 444 line~;
#X obj 32 475 *~;
#X obj 32 531 dac~;
#X obj 23 423 osc~;
#X obj 148 468 tgl 15 0 empty empty empty 17 7 0 10 -262144 -1 -1 0
1;
#X msg 86 423 \$1 20;
#X obj 86 402 / 127;
#X obj 148 488 metro 100;
#X obj 148 509 tabwrite~ array2;
#N canvas 0 50 450 250 (subpatch) 0;
#X array array2 100 float 3;
#A 0 -0.149344 -0.150189 -0.151034 -0.151878 -0.152723 -0.153568 -0.154413
-0.155258 -0.156103 -0.156947 -0.157792 -0.158637 -0.159481 -0.160324
-0.161167 -0.16201 -0.162853 -0.163696 -0.164539 -0.165383 -0.166226
-0.167069 -0.167912 -0.168755 -0.169598 -0.170441 -0.171284 -0.172125
-0.172967 -0.173808 -0.174649 -0.175491 -0.176332 -0.177173 -0.178015
-0.178856 -0.179697 -0.180539 -0.18138 -0.182222 -0.183063 -0.183902
-0.184742 -0.185581 -0.186421 -0.18726 -0.188099 -0.188939 -0.189778
-0.190618 -0.191457 -0.192297 -0.193136 -0.193976 -0.194815 -0.195653
-0.19649 -0.197328 -0.198165 -0.199003 -0.19984 -0.200677 -0.201515
-0.202352 -0.203189 -0.204027 -0.204864 -0.205702 -0.206539 -0.207376
-0.208211 -0.209046 -0.209881 -0.210717 -0.211552 -0.212387 -0.213222
-0.214057 -0.214893 -0.215728 -0.216563 -0.217398 -0.218234 -0.219069
-0.219902 -0.220735 -0.221568 -0.2224 -0.223233 -0.224066 -0.224899
-0.225732 -0.226565 -0.227398 -0.228231 -0.229064 -0.229897 -0.23073
-0.231561 -0.232392;
#X coords 0 1 100 -1 200 140 1 0 0;
#X restore 333 642 graph;
#X obj 19 358 phasor~ 1;
#X obj 20 386 *~ 1000;
#X obj 331 398 hsl 128 15 0 127 0 0 empty empty empty -2 -8 0 10 -262144
-1 -1 0 1;
#X obj 328 460 line~;
#X obj 274 491 *~;
#X obj 274 547 dac~;
#X obj 265 439 osc~;
#X obj 390 484 tgl 15 0 empty empty empty 17 7 0 10 -262144 -1 -1 0
1;
#X msg 328 439 \$1 20;
#X obj 328 418 / 127;
#X obj 390 504 metro 100;
#X obj 390 525 tabwrite~ array2;
#X obj 263 373 expr~ $v1 > 0.5;
#X obj 561 394 hsl 128 15 0 127 0 0 empty empty empty -2 -8 0 10 -262144
-1 -1 0 1;
#X obj 558 456 line~;
#X obj 504 487 *~;
#X obj 504 543 dac~;
#X obj 620 480 tgl 15 0 empty empty empty 17 7 0 10 -262144 -1 -1 0
1;
#X msg 558 435 \$1 20;
#X obj 558 414 / 127;
#X obj 620 500 metro 100;
#X obj 620 521 tabwrite~ array2;
#X obj 502 425 *~;
#X obj 480 355 osc~ 440;
#X obj 790 391 hsl 128 15 0 127 0 0 empty empty empty -2 -8 0 10 -262144
-1 -1 0 1;
#X obj 787 453 line~;
#X obj 733 484 *~;
#X obj 733 540 dac~;
#X obj 849 477 tgl 15 0 empty empty empty 17 7 0 10 -262144 -1 -1 0
1;
#X msg 787 432 \$1 20;
#X obj 787 411 / 127;
#X obj 849 497 metro 100;
#X obj 849 518 tabwrite~ array2;
#X obj 731 422 *~;
#X obj 709 352 osc~ 440;
#X obj 791 335 phasor~ 1;
#X obj 785 366 expr~ $v1 > 0.5;
#X obj 263 352 phasor~ 1;
#X obj 558 352 phasor~ -1;
#X obj 262 402 *~ 1000;
#X obj 113 660 hsl 128 15 0 127 0 0 empty empty empty -2 -8 0 10 -262144
-1 -1 0 1;
#X obj 110 722 line~;
#X obj 56 753 *~;
#X obj 56 809 dac~;
#X obj 172 746 tgl 15 0 empty empty empty 17 7 0 10 -262144 -1 -1 0
1;
#X msg 110 701 \$1 20;
#X obj 110 680 / 127;
#X obj 172 766 metro 100;
#X obj 172 787 tabwrite~ array2;
#X obj 54 691 *~;
#X obj 32 621 osc~ 440;
#X obj 114 604 phasor~ 1;
#X obj 108 635 expr~ $v1 > $f2;
#X obj 196 584 hsl 128 15 0 127 0 0 empty empty empty -2 -8 0 10 -262144
-1 -1 0 1;
#X obj 193 606 / 127;
#X obj 585 747 *~;
#X obj 591 866 dac~;
#X obj 670 686 osc~ 1;
#X floatatom 664 658 5 0 0 0 - - -;
#X obj 679 719 hsl 128 15 0 127 0 0 empty empty empty -2 -8 0 10 -262144
-1 -1 0 1;
#X obj 676 781 line~;
#X msg 676 760 \$1 20;
#X obj 676 739 / 127;
#X obj 588 814 *~;
#X obj 585 698 osc~ 880;
#X obj 675 857 tabwrite~ array1;
#X obj 814 766 tgl 15 0 empty empty empty 17 7 0 10 -262144 -1 -1 0
1;
#X obj 814 786 metro 100;
#X obj 814 807 tabwrite~ array2;
#X obj 675 828 tgl 15 0 empty empty empty 17 7 0 10 -262144 -1 -1 0
1;
#X obj 129 894 hsl 128 15 0 127 0 0 empty empty empty -2 -8 0 10 -262144
-1 -1 0 1;
#X obj 126 956 line~;
#X obj 62 967 *~;
#X obj 62 1023 dac~;
#X obj 61 931 osc~;
#X obj 126 914 / 127;
#X obj 60 897 +~;
#X msg 126 935 \$1 10;
#X floatatom 59 860 5 0 0 0 - - -;
#X floatatom 114 832 5 0 0 0 - - -;
#X obj 114 852 osc~;
#X floatatom 158 830 5 0 0 0 - - -;
#X obj 112 876 *~ 1;
#X obj 592 200 != 6;
#X connect 0 0 1 0;
#X connect 1 0 4 0;
#X connect 2 0 3 0;
#X connect 3 0 1 0;
#X connect 4 0 5 0;
#X connect 5 0 6 0;
#X connect 6 0 7 1;
#X connect 7 0 9 0;
#X connect 7 0 9 1;
#X connect 8 0 7 0;
#X connect 10 0 12 0;
#X connect 10 0 12 1;
#X connect 10 0 16 0;
#X connect 11 0 10 0;
#X connect 13 0 17 0;
#X connect 14 0 15 0;
#X connect 15 0 16 0;
#X connect 17 0 10 1;
#X connect 19 0 20 0;
#X connect 20 0 21 0;
#X connect 21 0 22 0;
#X connect 21 1 34 0;
#X connect 22 0 23 0;
#X connect 22 0 29 0;
#X connect 22 0 141 0;
#X connect 23 0 24 0;
#X connect 23 1 24 0;
#X connect 23 2 31 0;
#X connect 23 3 31 0;
#X connect 23 4 24 0;
#X connect 23 5 24 0;
#X connect 23 6 32 0;
#X connect 24 0 25 0;
#X connect 25 0 26 0;
#X connect 26 0 27 0;
#X connect 27 0 28 0;
#X connect 27 0 28 1;
#X connect 29 0 30 0;
#X connect 30 0 22 1;
#X connect 31 0 25 0;
#X connect 32 0 25 0;
#X connect 33 0 34 1;
#X connect 34 0 35 0;
#X connect 35 0 36 0;
#X connect 36 0 27 1;
#X connect 37 0 0 0;
#X connect 37 0 2 0;
#X connect 38 0 40 0;
#X connect 38 0 40 1;
#X connect 39 0 38 0;
#X connect 41 0 38 1;
#X connect 42 0 41 0;
#X connect 42 0 43 0;
#X connect 43 0 44 0;
#X connect 44 0 45 0;
#X connect 45 0 46 0;
#X connect 46 0 41 0;
#X connect 47 0 54 0;
#X connect 48 0 49 1;
#X connect 49 0 50 0;
#X connect 49 0 50 1;
#X connect 49 0 56 0;
#X connect 51 0 49 0;
#X connect 52 0 55 0;
#X connect 53 0 48 0;
#X connect 54 0 53 0;
#X connect 55 0 56 0;
#X connect 58 0 59 0;
#X connect 59 0 51 0;
#X connect 60 0 67 0;
#X connect 61 0 62 1;
#X connect 62 0 63 0;
#X connect 62 0 63 1;
#X connect 62 0 69 0;
#X connect 64 0 62 0;
#X connect 65 0 68 0;
#X connect 66 0 61 0;
#X connect 67 0 66 0;
#X connect 68 0 69 0;
#X connect 70 0 97 0;
#X connect 71 0 77 0;
#X connect 72 0 73 1;
#X connect 73 0 74 0;
#X connect 73 0 74 1;
#X connect 73 0 79 0;
#X connect 75 0 78 0;
#X connect 76 0 72 0;
#X connect 77 0 76 0;
#X connect 78 0 79 0;
#X connect 80 0 73 0;
#X connect 81 0 80 0;
#X connect 82 0 88 0;
#X connect 83 0 84 1;
#X connect 84 0 85 0;
#X connect 84 0 85 1;
#X connect 84 0 90 0;
#X connect 86 0 89 0;
#X connect 87 0 83 0;
#X connect 88 0 87 0;
#X connect 89 0 90 0;
#X connect 91 0 84 0;
#X connect 92 0 91 0;
#X connect 93 0 94 0;
#X connect 94 0 91 1;
#X connect 95 0 70 0;
#X connect 96 0 80 1;
#X connect 97 0 64 0;
#X connect 98 0 104 0;
#X connect 99 0 100 1;
#X connect 100 0 101 0;
#X connect 100 0 101 1;
#X connect 100 0 106 0;
#X connect 102 0 105 0;
#X connect 103 0 99 0;
#X connect 104 0 103 0;
#X connect 105 0 106 0;
#X connect 107 0 100 0;
#X connect 108 0 107 0;
#X connect 109 0 110 0;
#X connect 110 0 107 1;
#X connect 111 0 112 0;
#X connect 112 0 110 1;
#X connect 113 0 121 0;
#X connect 113 0 123 0;
#X connect 115 0 113 1;
#X connect 115 0 126 0;
#X connect 116 0 115 0;
#X connect 117 0 120 0;
#X connect 118 0 121 1;
#X connect 119 0 118 0;
#X connect 120 0 119 0;
#X connect 121 0 114 0;
#X connect 122 0 113 0;
#X connect 124 0 125 0;
#X connect 125 0 126 0;
#X connect 125 0 123 0;
#X connect 127 0 123 0;
#X connect 128 0 133 0;
#X connect 129 0 130 1;
#X connect 130 0 131 0;
#X connect 130 0 131 1;
#X connect 132 0 130 0;
#X connect 133 0 135 0;
#X connect 134 0 132 0;
#X connect 135 0 129 0;
#X connect 136 0 134 0;
#X connect 137 0 138 0;
#X connect 138 0 140 0;
#X connect 139 0 140 1;
#X connect 140 0 134 1;
#X connect 141 0 33 0;
