#N canvas 23 44 950 860 10;
#X obj 114 219 cnv 15 300 220 empty empty first_sound 20 12 0 14 -204800
-66577 0;
#X obj 419 218 cnv 15 200 200 empty empty yellow_button 20 12 0 14
-203904 -66577 0;
#X obj 518 11 cnv 15 160 120 empty empty outputs 20 12 0 14 -233017
-66577 0;
#X obj 8 447 cnv 15 400 220 empty empty other_sound 20 12 0 14 -204800
-66577 0;
#X obj 6 12 cnv 15 300 200 empty empty button_state 20 12 0 14 -204786
-66577 0;
#X obj 8 219 cnv 15 100 220 empty empty location 20 12 0 14 -261682
-66577 0;
#X obj 681 10 cnv 15 200 400 empty empty mouse_interaction 20 12 0
14 -232576 -66577 0;
#X obj 314 11 cnv 15 200 200 empty empty button_LED 20 12 0 14 -262130
-66577 0;
#X obj 334 126 square 0.425;
#X obj 334 106 alpha;
#X obj 334 86 translateXYZ -3.5 3.5 0;
#X obj 101 101 tgl 40 0 empty empty empty 17 7 0 10 -262144 -1 -1 1
1;
#X obj 154 101 f \$1;
#X obj 202 102 f \$2;
#X obj 124 79 bng 15 250 50 0 empty empty empty 17 7 0 10 -262144 -1
-1;
#X floatatom 699 58 5 0 0 0 - - -;
#X floatatom 736 58 5 0 0 0 - - -;
#X floatatom 774 58 5 0 0 0 - - -;
#X floatatom 699 120 5 0 0 0 - - -;
#X floatatom 736 120 5 0 0 0 - - -;
#X obj 699 37 gemmouse 800 800;
#X obj 699 78 / 100;
#X obj 699 99 - 4;
#X obj 736 99 + 4;
#X obj 736 78 / -100;
#X obj 699 236 &&;
#X obj 699 161 >=;
#X obj 722 206 <=;
#X obj 714 140 - 0.425;
#X obj 737 186 + 0.425;
#X obj 740 282 &&;
#X floatatom 699 257 5 0 0 0 - - -;
#X obj 788 238 &&;
#X obj 788 163 >=;
#X obj 811 208 <=;
#X obj 803 142 - 0.425;
#X obj 826 188 + 0.425;
#X floatatom 788 259 5 0 0 0 - - -;
#X floatatom 740 302 5 0 0 0 - - -;
#X obj 760 322 &&;
#X floatatom 760 343 5 0 0 0 - - -;
#X obj 760 371 spigot;
#X obj 760 392 bng 15 250 50 0 empty empty empty 17 7 0 10 -262144
-1 -1;
#X obj 58 396 + 4.5;
#X obj 17 289 * -1;
#X obj 17 310 + 4.5;
#X floatatom 17 331 5 0 0 0 - - -;
#X floatatom 58 414 5 0 0 0 - - -;
#X obj 341 461 + 1;
#X obj 316 506 ==;
#X obj 366 461 % 16;
#X obj 316 482 + 1;
#X obj 130 394 spigot;
#X floatatom 531 41 5 0 0 0 - output1 -;
#X floatatom 567 41 5 0 0 0 - output2 -;
#X floatatom 602 41 5 0 0 0 - output3 -;
#X floatatom 637 41 5 0 0 0 - output4 -;
#X obj 130 415 s output1;
#X obj 285 229 % 4;
#X msg 255 229 1;
#X obj 258 256 ==;
#X obj 258 277 &&;
#X obj 78 618 spigot;
#X obj 135 529 % 4;
#X obj 111 551 ==;
#X obj 111 572 &&;
#X obj 78 639 s output2;
#X msg 107 530 2;
#X obj 150 619 spigot;
#X obj 210 531 % 4;
#X obj 183 556 ==;
#X obj 183 577 &&;
#X obj 150 640 s output3;
#X msg 180 531 3;
#X obj 221 618 spigot;
#X obj 280 530 % 4;
#X obj 254 554 ==;
#X obj 254 575 &&;
#X msg 250 531 0;
#X obj 221 639 s output4;
#X obj 316 461 f;
#X floatatom 316 527 5 0 0 0 - - -;
#X obj 18 374 * 8;
#X floatatom 18 415 5 0 0 0 - - -;
#X obj 18 355 >= 5;
#X obj 18 394 + 0;
#X obj 147 33 r start;
#X obj 13 103 tgl 15 0 empty empty empty 17 7 0 10 -262144 -1 -1 1
1;
#X obj 334 44 gemhead 3;
#X obj 431 245 &&;
#X floatatom 431 266 5 0 0 0 - - -;
#X obj 431 288 tgl 15 0 empty empty empty 17 7 0 10 -262144 -1 -1 0
1;
#X obj 431 308 gemhead 4;
#X obj 431 329 colorRGB 1 1 0 1;
#X obj 431 350 translateXYZ -3.5 3.5 0;
#X obj 431 371 alpha;
#X obj 431 392 square 0.425;
#X obj 334 65 colorRGB 0 1 0.3 1;
#X obj 48 101 r tempo;
#X obj 451 287 r start;
#X obj 501 308 bng 15 250 50 0 empty empty empty 17 7 0 10 -262144
-1 -1;
#X obj 501 287 delay 1;
#X obj 124 58 delay 1;
#X obj 450 65 f \$1;
#X obj 481 65 f \$2;
#X obj 450 42 r start;
#X obj 790 112 f \$1;
#X obj 821 112 f \$2;
#X obj 790 89 r start;
#X obj 58 374 f \$1;
#X obj 17 269 f \$2;
#X obj 17 244 r start;
#X floatatom 154 122 5 0 0 0 - - -;
#X floatatom 202 123 5 0 0 0 - - -;
#X obj 535 329 f \$1;
#X obj 566 329 f \$2;
#X obj 535 306 r start;
#X floatatom 104 163 5 0 0 0 - - -;
#X obj 13 123 metro 300;
#X obj 178 310 / 4;
#X obj 178 331 > 0;
#X obj 163 352 &&;
#X floatatom 531 62 5 0 0 0 - output5 -;
#X floatatom 531 83 5 0 0 0 - output6 -;
#X floatatom 531 105 5 0 0 0 - output7 -;
#X obj 140 332 < 1.1;
#X obj 163 373 &&;
#X obj 202 395 spigot;
#X obj 250 311 / 4;
#X obj 235 353 &&;
#X obj 235 374 &&;
#X obj 267 397 spigot;
#X obj 315 313 / 4;
#X obj 300 355 &&;
#X obj 300 376 &&;
#X obj 334 397 spigot;
#X obj 382 313 / 4;
#X obj 367 355 &&;
#X obj 367 376 &&;
#X obj 212 333 < 2.1;
#X obj 250 332 > 1;
#X obj 277 335 < 3.1;
#X obj 315 334 > 2;
#X obj 344 335 < 4.1;
#X obj 382 334 > 3;
#X obj 202 416 s output5;
#X obj 267 418 s output6;
#X obj 334 418 s output7;
#X obj 417 424 cnv 15 300 300 empty empty end_sound 20 12 0 14 -204800
-66577 0;
#X obj 27 494 tgl 15 0 empty empty empty 17 7 0 10 -262144 -1 -1 1
1;
#X obj 74 493 r tempo;
#X obj 27 472 r start;
#X obj 27 515 metro 300;
#X floatatom 636 107 5 0 0 0 - output8 -;
#X obj 562 505 f \$1;
#X obj 625 505 f \$2;
#X obj 601 432 r start;
#X obj 574 569 &&;
#X floatatom 574 590 5 0 0 0 - - -;
#X obj 547 532 ==;
#X obj 610 533 ==;
#X msg 572 532 3.5;
#X msg 635 533 -3.5;
#X obj 601 457 tgl 15 0 empty empty empty 17 7 0 10 -262144 -1 -1 1
1;
#X obj 636 455 r tempo;
#X obj 601 477 metro 300;
#X obj 435 675 spigot;
#X msg 435 652 0;
#X obj 555 612 &&;
#X floatatom 555 633 5 0 0 0 - - -;
#X obj 531 655 &&;
#X obj 435 696 s end;
#X obj 217 44 r end;
#X obj 214 64 r fadeout;
#X connect 9 0 8 0;
#X connect 10 0 9 0;
#X connect 11 0 88 0;
#X connect 11 0 117 0;
#X connect 12 0 112 0;
#X connect 13 0 113 0;
#X connect 14 0 11 0;
#X connect 14 0 91 0;
#X connect 15 0 21 0;
#X connect 16 0 24 0;
#X connect 17 0 39 1;
#X connect 18 0 26 0;
#X connect 18 0 27 0;
#X connect 19 0 33 0;
#X connect 19 0 34 0;
#X connect 20 0 15 0;
#X connect 20 1 16 0;
#X connect 20 2 17 0;
#X connect 21 0 22 0;
#X connect 22 0 18 0;
#X connect 23 0 19 0;
#X connect 24 0 23 0;
#X connect 25 0 31 0;
#X connect 26 0 25 0;
#X connect 27 0 25 1;
#X connect 28 0 26 1;
#X connect 29 0 27 1;
#X connect 30 0 38 0;
#X connect 31 0 30 0;
#X connect 32 0 37 0;
#X connect 33 0 32 0;
#X connect 34 0 32 1;
#X connect 35 0 33 1;
#X connect 36 0 34 1;
#X connect 37 0 30 1;
#X connect 38 0 39 0;
#X connect 39 0 40 0;
#X connect 40 0 41 0;
#X connect 40 0 41 1;
#X connect 41 0 42 0;
#X connect 42 0 11 0;
#X connect 43 0 47 0;
#X connect 44 0 45 0;
#X connect 45 0 46 0;
#X connect 46 0 63 0;
#X connect 46 0 69 0;
#X connect 46 0 75 0;
#X connect 46 0 58 0;
#X connect 46 0 84 0;
#X connect 47 0 85 1;
#X connect 48 0 50 0;
#X connect 49 0 61 1;
#X connect 49 0 81 0;
#X connect 49 0 65 1;
#X connect 49 0 77 1;
#X connect 49 0 71 1;
#X connect 50 0 80 1;
#X connect 51 0 49 0;
#X connect 52 0 57 0;
#X connect 58 0 60 1;
#X connect 59 0 60 0;
#X connect 60 0 61 0;
#X connect 61 0 126 1;
#X connect 61 0 130 1;
#X connect 61 0 138 1;
#X connect 61 0 134 1;
#X connect 62 0 66 0;
#X connect 63 0 64 1;
#X connect 64 0 65 0;
#X connect 65 0 62 1;
#X connect 67 0 64 0;
#X connect 68 0 72 0;
#X connect 69 0 70 1;
#X connect 70 0 71 0;
#X connect 71 0 68 1;
#X connect 73 0 70 0;
#X connect 74 0 79 0;
#X connect 75 0 76 1;
#X connect 76 0 77 0;
#X connect 77 0 74 1;
#X connect 78 0 76 0;
#X connect 80 0 48 0;
#X connect 80 0 51 0;
#X connect 81 0 89 1;
#X connect 81 0 170 0;
#X connect 82 0 85 0;
#X connect 83 0 119 0;
#X connect 83 0 136 0;
#X connect 83 0 132 0;
#X connect 83 0 128 0;
#X connect 83 0 49 1;
#X connect 84 0 82 0;
#X connect 85 0 83 0;
#X connect 86 0 11 0;
#X connect 86 0 12 0;
#X connect 86 0 13 0;
#X connect 86 0 87 0;
#X connect 86 0 102 0;
#X connect 87 0 118 0;
#X connect 88 0 97 0;
#X connect 89 0 90 0;
#X connect 90 0 91 0;
#X connect 91 0 92 0;
#X connect 92 0 93 0;
#X connect 93 0 94 0;
#X connect 94 0 95 0;
#X connect 95 0 96 0;
#X connect 97 0 10 0;
#X connect 98 0 118 1;
#X connect 99 0 91 0;
#X connect 99 0 101 0;
#X connect 100 0 91 0;
#X connect 101 0 100 0;
#X connect 102 0 14 0;
#X connect 103 0 10 1;
#X connect 104 0 10 2;
#X connect 105 0 103 0;
#X connect 105 0 104 0;
#X connect 106 0 28 0;
#X connect 106 0 29 0;
#X connect 107 0 35 0;
#X connect 107 0 36 0;
#X connect 108 0 106 0;
#X connect 108 0 107 0;
#X connect 109 0 43 0;
#X connect 110 0 44 0;
#X connect 111 0 109 0;
#X connect 111 0 110 0;
#X connect 114 0 94 1;
#X connect 115 0 94 2;
#X connect 116 0 114 0;
#X connect 116 0 115 0;
#X connect 117 0 68 0;
#X connect 117 0 52 0;
#X connect 117 0 62 0;
#X connect 117 0 74 0;
#X connect 117 0 89 0;
#X connect 117 0 127 0;
#X connect 117 0 135 0;
#X connect 117 0 131 0;
#X connect 117 0 168 0;
#X connect 118 0 117 0;
#X connect 119 0 120 0;
#X connect 119 0 125 0;
#X connect 120 0 121 1;
#X connect 121 0 126 0;
#X connect 125 0 121 0;
#X connect 126 0 52 1;
#X connect 127 0 145 0;
#X connect 128 0 139 0;
#X connect 128 0 140 0;
#X connect 129 0 130 0;
#X connect 130 0 127 1;
#X connect 131 0 146 0;
#X connect 132 0 141 0;
#X connect 132 0 142 0;
#X connect 133 0 134 0;
#X connect 134 0 131 1;
#X connect 135 0 147 0;
#X connect 136 0 143 0;
#X connect 136 0 144 0;
#X connect 137 0 138 0;
#X connect 138 0 135 1;
#X connect 139 0 129 0;
#X connect 140 0 129 1;
#X connect 141 0 133 0;
#X connect 142 0 133 1;
#X connect 143 0 137 0;
#X connect 144 0 137 1;
#X connect 149 0 152 0;
#X connect 150 0 152 1;
#X connect 151 0 149 0;
#X connect 152 0 80 0;
#X connect 152 0 78 0;
#X connect 152 0 73 0;
#X connect 152 0 59 0;
#X connect 152 0 83 0;
#X connect 152 0 67 0;
#X connect 154 0 159 1;
#X connect 155 0 160 1;
#X connect 156 0 154 0;
#X connect 156 0 155 0;
#X connect 156 0 163 0;
#X connect 157 0 158 0;
#X connect 158 0 168 1;
#X connect 159 0 157 0;
#X connect 160 0 157 1;
#X connect 161 0 159 0;
#X connect 162 0 160 0;
#X connect 163 0 165 0;
#X connect 164 0 165 1;
#X connect 165 0 162 0;
#X connect 165 0 161 0;
#X connect 165 0 167 0;
#X connect 166 0 171 0;
#X connect 167 0 166 0;
#X connect 168 0 169 0;
#X connect 169 0 170 1;
#X connect 170 0 166 1;
#X connect 172 0 11 0;
#X connect 173 0 11 0;
#X coords 0 -1 1 1 42 42 2 100 100;
