#N canvas 1015 59 1267 859 10;
#X obj 6 3 cnv 15 550 720 empty empty purple 20 12 0 14 -232576 -66577
0;
#X obj 26 139 t a a;
#X msg 26 160 8;
#X obj 26 181 until;
#X obj 26 202 gemlist;
#X obj 26 265 alpha;
#X obj 26 77 tgl 15 0 empty empty empty 17 7 0 10 -262144 -1 -1 0 1
;
#X obj 156 598 inlet;
#X obj 26 36 loadbang;
#X obj 39 57 delay 1;
#X obj 156 656 f;
#X obj 180 656 + 1;
#X obj 203 656 % 8;
#X obj 156 675 * -1;
#X obj 156 618 tgl 15 0 empty empty empty 17 7 0 10 -262144 -1 -1 0
1;
#X obj 26 284 square 0.425;
#X obj 158 139 t a a;
#X msg 158 160 8;
#X obj 158 181 until;
#X obj 158 202 gemlist;
#X obj 158 244 colorRGB 1 0 1 1;
#X obj 158 265 alpha;
#X obj 158 77 tgl 15 0 empty empty empty 17 7 0 10 -262144 -1 -1 0
1;
#X obj 158 36 loadbang;
#X obj 171 57 delay 1;
#X obj 158 284 square 0.425;
#X obj 158 223 translateXYZ 0 -1 0;
#X obj 158 118 translateXYZ 3.5 0 0;
#X obj 26 118 translateXYZ 0 -3.5 0;
#X obj 26 223 translateXYZ 1 0 0;
#X obj 156 695 + 2.5;
#X obj 194 694 - 2.5;
#X obj 285 138 t a a;
#X obj 285 180 until;
#X obj 285 201 gemlist;
#X obj 285 264 alpha;
#X obj 285 76 tgl 15 0 empty empty empty 17 7 0 10 -262144 -1 -1 0
1;
#X obj 285 35 loadbang;
#X obj 298 56 delay 1;
#X obj 285 283 square 0.425;
#X obj 285 222 translateXYZ 1 0 0;
#X obj 285 117 translateXYZ 0 -2.5 0;
#X obj 232 694 + 3.5;
#X obj 418 138 t a a;
#X msg 418 159 8;
#X obj 418 180 until;
#X obj 418 201 gemlist;
#X obj 418 264 alpha;
#X obj 418 76 tgl 15 0 empty empty empty 17 7 0 10 -262144 -1 -1 0
1;
#X obj 418 35 loadbang;
#X obj 431 56 delay 1;
#X obj 418 283 square 0.425;
#X obj 418 222 translateXYZ 0 -1 0;
#X obj 418 117 translateXYZ 2.5 0 0;
#X obj 270 694 - 3.5;
#X obj 26 98 gemhead 60;
#X obj 158 97 gemhead 60;
#X obj 285 96 gemhead 59;
#X obj 418 96 gemhead 59;
#X obj 26 244 colorRGB 1 0 1 1;
#X obj 285 243 colorRGB 1 0.5 1 1;
#X obj 418 243 colorRGB 1 0.5 1 1;
#X obj 25 412 t a a;
#X obj 25 454 until;
#X obj 25 475 gemlist;
#X obj 25 538 alpha;
#X obj 25 350 tgl 15 0 empty empty empty 17 7 0 10 -262144 -1 -1 0
1;
#X obj 25 309 loadbang;
#X obj 38 330 delay 1;
#X obj 25 557 square 0.425;
#X obj 25 496 translateXYZ 1 0 0;
#X msg 25 433 7;
#X obj 158 411 t a a;
#X msg 158 432 8;
#X obj 158 453 until;
#X obj 158 474 gemlist;
#X obj 158 537 alpha;
#X obj 158 349 tgl 15 0 empty empty empty 17 7 0 10 -262144 -1 -1 0
1;
#X obj 158 308 loadbang;
#X obj 171 329 delay 1;
#X obj 158 556 square 0.425;
#X obj 158 495 translateXYZ 0 -1 0;
#X msg 285 159 8;
#X obj 25 370 gemhead 58;
#X obj 158 369 gemhead 58;
#X obj 158 516 colorRGB 1 0.8 1 1;
#X obj 25 517 colorRGB 1 0.8 1 1;
#X obj 25 391 translateXYZ 0 -1.5 0;
#X obj 158 390 translateXYZ 1.5 0 0;
#X obj 307 694 + 4.5;
#X obj 344 694 - 4.5;
#X obj 285 410 t a a;
#X obj 285 452 until;
#X obj 285 473 gemlist;
#X obj 285 536 alpha;
#X obj 285 348 tgl 15 0 empty empty empty 17 7 0 10 -262144 -1 -1 0
1;
#X obj 285 307 loadbang;
#X obj 298 328 delay 1;
#X obj 285 555 square 0.425;
#X obj 285 494 translateXYZ 1 0 0;
#X msg 285 431 7;
#X obj 418 410 t a a;
#X msg 418 431 8;
#X obj 418 452 until;
#X obj 418 473 gemlist;
#X obj 418 536 alpha;
#X obj 418 348 tgl 15 0 empty empty empty 17 7 0 10 -262144 -1 -1 0
1;
#X obj 418 307 loadbang;
#X obj 431 328 delay 1;
#X obj 418 555 square 0.425;
#X obj 418 494 translateXYZ 0 -1 0;
#X obj 418 368 gemhead 57;
#X obj 285 368 gemhead 57;
#X obj 418 515 colorRGB 1 1 1 1;
#X obj 285 515 colorRGB 1 1 1 1;
#X obj 285 389 translateXYZ 0 -0.5 0;
#X obj 418 389 translateXYZ 0.5 0 0;
#X obj 381 694 + 5.5;
#X obj 418 694 - 5.5;
#X obj 156 636 metro 300;
#X obj 217 614 bng 15 250 50 0 empty empty empty 17 7 0 10 -262144
-1 -1;
#X obj 559 3 cnv 15 300 300 empty empty last 20 12 0 14 -261682 -66577
0;
#X obj 579 144 t a a;
#X obj 579 185 until;
#X obj 579 206 gemlist;
#X obj 579 270 t a a;
#X obj 732 122 t a a;
#X obj 732 164 until;
#X obj 732 185 gemlist;
#X obj 732 100 separator;
#X obj 732 206 t a a;
#X obj 732 227 square 0.425;
#X obj 577 101 gemhead 60;
#X obj 577 80 tgl 15 0 empty empty empty 17 7 0 10 -262144 -1 -1 1
1;
#X obj 577 39 loadbang;
#X obj 590 60 delay 1;
#X obj 686 55 bng 15 250 50 0 empty boom empty 17 7 0 10 -262144 -1
-1;
#X msg 686 96 0;
#X obj 686 75 delay 600;
#X obj 579 227 translateXYZ -1 -1 0;
#X obj 579 123 translateXYZ 10.5 -1.5 0;
#X msg 732 143 16;
#X msg 579 165 8;
#X obj 732 251 translateXYZ -1 1 0;
#X obj 579 248 colorRGB 1 0.4 0.6;
#X obj 732 272 colorRGB 1 0.4 0.6;
#X connect 1 0 2 0;
#X connect 1 1 4 1;
#X connect 2 0 3 0;
#X connect 3 0 4 0;
#X connect 4 0 29 0;
#X connect 5 0 15 0;
#X connect 6 0 55 0;
#X connect 7 0 6 0;
#X connect 7 0 14 0;
#X connect 7 0 22 0;
#X connect 7 0 95 0;
#X connect 7 0 106 0;
#X connect 7 0 77 0;
#X connect 7 0 66 0;
#X connect 7 0 48 0;
#X connect 7 0 36 0;
#X connect 7 0 120 0;
#X connect 8 0 9 0;
#X connect 8 0 6 0;
#X connect 9 0 6 0;
#X connect 10 0 11 0;
#X connect 10 0 13 0;
#X connect 10 0 31 0;
#X connect 10 0 54 0;
#X connect 10 0 90 0;
#X connect 10 0 118 0;
#X connect 11 0 12 0;
#X connect 12 0 10 1;
#X connect 13 0 30 0;
#X connect 13 0 42 0;
#X connect 13 0 89 0;
#X connect 13 0 117 0;
#X connect 14 0 119 0;
#X connect 16 0 17 0;
#X connect 16 1 19 1;
#X connect 17 0 18 0;
#X connect 18 0 19 0;
#X connect 19 0 26 0;
#X connect 20 0 21 0;
#X connect 21 0 25 0;
#X connect 22 0 56 0;
#X connect 23 0 24 0;
#X connect 23 0 22 0;
#X connect 24 0 22 0;
#X connect 26 0 20 0;
#X connect 27 0 16 0;
#X connect 28 0 1 0;
#X connect 29 0 59 0;
#X connect 30 0 28 1;
#X connect 31 0 27 2;
#X connect 32 0 82 0;
#X connect 32 1 34 1;
#X connect 33 0 34 0;
#X connect 34 0 40 0;
#X connect 35 0 39 0;
#X connect 36 0 57 0;
#X connect 37 0 38 0;
#X connect 37 0 36 0;
#X connect 38 0 36 0;
#X connect 40 0 60 0;
#X connect 41 0 32 0;
#X connect 42 0 41 1;
#X connect 43 0 44 0;
#X connect 43 1 46 1;
#X connect 44 0 45 0;
#X connect 45 0 46 0;
#X connect 46 0 52 0;
#X connect 47 0 51 0;
#X connect 48 0 58 0;
#X connect 49 0 50 0;
#X connect 49 0 48 0;
#X connect 50 0 48 0;
#X connect 52 0 61 0;
#X connect 53 0 43 0;
#X connect 54 0 53 2;
#X connect 55 0 28 0;
#X connect 56 0 27 0;
#X connect 57 0 41 0;
#X connect 58 0 53 0;
#X connect 59 0 5 0;
#X connect 60 0 35 0;
#X connect 61 0 47 0;
#X connect 62 0 71 0;
#X connect 62 1 64 1;
#X connect 63 0 64 0;
#X connect 64 0 70 0;
#X connect 65 0 69 0;
#X connect 66 0 83 0;
#X connect 67 0 68 0;
#X connect 67 0 66 0;
#X connect 68 0 66 0;
#X connect 70 0 86 0;
#X connect 71 0 63 0;
#X connect 72 0 73 0;
#X connect 72 1 75 1;
#X connect 73 0 74 0;
#X connect 74 0 75 0;
#X connect 75 0 81 0;
#X connect 76 0 80 0;
#X connect 77 0 84 0;
#X connect 78 0 79 0;
#X connect 78 0 77 0;
#X connect 79 0 77 0;
#X connect 81 0 85 0;
#X connect 82 0 33 0;
#X connect 83 0 87 0;
#X connect 84 0 88 0;
#X connect 85 0 76 0;
#X connect 86 0 65 0;
#X connect 87 0 62 0;
#X connect 88 0 72 0;
#X connect 89 0 87 1;
#X connect 90 0 88 2;
#X connect 91 0 100 0;
#X connect 91 1 93 1;
#X connect 92 0 93 0;
#X connect 93 0 99 0;
#X connect 94 0 98 0;
#X connect 95 0 112 0;
#X connect 96 0 97 0;
#X connect 96 0 95 0;
#X connect 97 0 95 0;
#X connect 99 0 114 0;
#X connect 100 0 92 0;
#X connect 101 0 102 0;
#X connect 101 1 104 1;
#X connect 102 0 103 0;
#X connect 103 0 104 0;
#X connect 104 0 110 0;
#X connect 105 0 109 0;
#X connect 106 0 111 0;
#X connect 107 0 108 0;
#X connect 107 0 106 0;
#X connect 108 0 106 0;
#X connect 110 0 113 0;
#X connect 111 0 116 0;
#X connect 112 0 115 0;
#X connect 113 0 105 0;
#X connect 114 0 94 0;
#X connect 115 0 91 0;
#X connect 116 0 101 0;
#X connect 117 0 115 1;
#X connect 118 0 116 2;
#X connect 119 0 10 0;
#X connect 122 0 142 0;
#X connect 122 1 124 1;
#X connect 123 0 124 0;
#X connect 124 0 139 0;
#X connect 125 1 129 0;
#X connect 126 0 141 0;
#X connect 126 1 128 1;
#X connect 127 0 128 0;
#X connect 128 0 130 0;
#X connect 129 0 126 0;
#X connect 130 0 131 0;
#X connect 131 0 143 0;
#X connect 132 0 140 0;
#X connect 133 0 132 0;
#X connect 134 0 135 0;
#X connect 134 0 133 0;
#X connect 135 0 133 0;
#X connect 136 0 133 0;
#X connect 136 0 138 0;
#X connect 137 0 133 0;
#X connect 138 0 137 0;
#X connect 139 0 144 0;
#X connect 140 0 122 0;
#X connect 141 0 127 0;
#X connect 142 0 123 0;
#X connect 143 0 145 0;
#X connect 144 0 125 0;
