#N canvas 991 0 958 966 10;
#X obj 320 454 cnv 15 130 200 empty empty end_LED 20 12 0 14 -262130
-66577 0;
#X obj 16 1041 cnv 15 850 300 empty empty play 20 12 0 14 -203904 -66577
0;
#X obj 463 310 cnv 15 350 350 empty empty empty 20 12 0 14 -159808
-66577 0;
#X obj 16 815 cnv 15 1050 220 empty empty sound_setting 20 12 0 14
-232576 -66577 0;
#X obj 15 308 cnv 15 300 250 empty empty grey_buttons 20 12 0 14 -228856
-66577 0;
#X obj 16 562 cnv 15 300 250 empty empty red_buttons 20 12 0 14 -261234
-66577 0;
#X obj 20 925 gemwin;
#X msg 28 906 0 \, destroy;
#X msg 20 886 reset \, dimen 800 800 \, create \, 1;
#X obj 27 397 t a a;
#X obj 27 438 until;
#X obj 27 459 gemlist;
#X obj 26 335 tgl 15 0 empty empty empty 17 7 0 10 -262144 -1 -1 1
1;
#X obj 27 523 t a a;
#X obj 173 371 t a a;
#X obj 173 413 until;
#X obj 173 434 gemlist;
#X obj 173 349 separator;
#X obj 173 455 t a a;
#X obj 25 354 gemhead 1;
#X obj 173 521 colorRGB 0.3 0.3 0.3;
#X msg 173 392 8;
#X msg 27 418 8;
#X obj 173 500 translateXYZ 0 -1 0;
#X obj 27 480 translateXYZ -1 0 0;
#X obj 27 375 translateXYZ 4.5 3.5 0;
#X obj 173 476 square 0.425;
#X obj 28 645 t a a;
#X obj 28 686 until;
#X obj 28 707 gemlist;
#X obj 26 585 tgl 15 0 empty empty empty 17 7 0 10 -262144 -1 -1 1
1;
#X obj 28 769 t a a;
#X obj 26 604 gemhead 2;
#X obj 179 624 f;
#X obj 206 624 + 1;
#X obj 179 645 - 3.5;
#X obj 27 501 colorRGB 0.3 0.3 0.3 1;
#X obj 28 790 square 0.425;
#X obj 28 625 translateXYZ -3.5 4.5 0;
#X obj 28 728 translateXYZ 0 -1 0;
#X obj 233 624 % 8;
#X obj 463 310 button -3.5 3.5;
#X obj 507 310 button -2.5 3.5;
#X obj 551 310 button -1.5 3.5;
#X obj 595 310 button -0.5 3.5;
#X obj 639 310 button 0.5 3.5;
#X obj 683 310 button 1.5 3.5;
#X obj 727 310 button 2.5 3.5;
#X obj 771 310 button 3.5 3.5;
#X msg 23 851 \; pd dsp 1 \;;
#X obj 320 310 cnv 15 130 140 empty empty middle_button 20 12 0 14
-262130 -66577 0;
#X obj 333 357 gemhead 100;
#X obj 333 398 rotateXYZ 0 0 45;
#X obj 333 377 colorRGB 0 0 0;
#X obj 333 418 square 0.2;
#X obj 333 338 tgl 15 0 empty empty empty 17 7 0 10 -262144 -1 -1 1
1;
#X msg 97 850 \; pd dsp 0 \;;
#X msg 28 666 4;
#X obj 205 709 + 1;
#X obj 178 771 + 4.5;
#X msg 224 895 read -resize cymbal.wav sound3;
#X msg 224 916 read -resize kick.wav sound4;
#X obj 414 852 soundfiler;
#X obj 414 873 soundfiler;
#X obj 414 895 soundfiler;
#X obj 414 916 soundfiler;
#N canvas 0 50 450 250 (subpatch) 0;
#X array sound1 54481 float 2;
#X coords 0 1 54481 -1 200 140 1 0 0;
#X restore 346 11 graph;
#N canvas 0 50 450 250 (subpatch) 0;
#X array sound2 16174 float 2;
#X coords 0 1 16174 -1 200 140 1;
#X restore 548 11 graph;
#N canvas 0 50 450 250 (subpatch) 0;
#X array sound3 2259 float 2;
#X coords 0 1 2259 -1 200 140 1;
#X restore 346 163 graph;
#N canvas 0 50 450 250 (subpatch) 0;
#X array sound4 28434 float 2;
#X coords 0 1 28434 -1 200 140 1;
#X restore 548 163 graph;
#X obj 57 1142 tabplay~ sound1;
#X obj 154 1142 tabplay~ sound2;
#X obj 251 1142 tabplay~ sound3;
#X obj 348 1142 tabplay~ sound4;
#X obj 463 354 button -3.5 2.5;
#X obj 507 354 button -2.5 2.5;
#X obj 551 354 button -1.5 2.5;
#X obj 595 354 button -0.5 2.5;
#X obj 639 354 button 0.5 2.5;
#X obj 683 354 button 1.5 2.5;
#X obj 727 354 button 2.5 2.5;
#X obj 771 354 button 3.5 2.5;
#X obj 463 398 button -3.5 1.5;
#X obj 507 398 button -2.5 1.5;
#X obj 551 398 button -1.5 1.5;
#X obj 595 398 button -0.5 1.5;
#X obj 639 398 button 0.5 1.5;
#X obj 683 398 button 1.5 1.5;
#X obj 727 398 button 2.5 1.5;
#X obj 771 398 button 3.5 1.5;
#X obj 507 442 button -2.5 0.5;
#X obj 551 442 button -1.5 0.5;
#X obj 595 442 button -0.5 0.5;
#X obj 639 442 button 0.5 0.5;
#X obj 683 442 button 1.5 0.5;
#X obj 727 442 button 2.5 0.5;
#X obj 463 442 button -3.5 0.5;
#X obj 771 442 button 3.5 0.5;
#X obj 463 486 button -3.5 -0.5;
#X obj 463 530 button -3.5 -1.5;
#X obj 463 574 button -3.5 -2.5;
#X obj 463 618 button -3.5 -3.5;
#X obj 507 486 button -2.5 -0.5;
#X obj 507 530 button -2.5 -1.5;
#X obj 507 574 button -2.5 -2.5;
#X obj 507 618 button -2.5 -3.5;
#X obj 551 486 button -1.5 -0.5;
#X obj 551 530 button -1.5 -1.5;
#X obj 551 574 button -1.5 -2.5;
#X obj 551 618 button -1.5 -3.5;
#X obj 595 486 button -0.5 -0.5;
#X obj 595 530 button -0.5 -1.5;
#X obj 595 574 button -0.5 -2.5;
#X obj 595 618 button -0.5 -3.5;
#X obj 639 486 button 0.5 -0.5;
#X obj 639 530 button 0.5 -1.5;
#X obj 639 574 button 0.5 -2.5;
#X obj 639 618 button 0.5 -3.5;
#X obj 683 486 button 1.5 -0.5;
#X obj 683 530 button 1.5 -1.5;
#X obj 683 574 button 1.5 -2.5;
#X obj 683 618 button 1.5 -3.5;
#X obj 727 486 button 2.5 -0.5;
#X obj 727 530 button 2.5 -1.5;
#X obj 727 574 button 2.5 -2.5;
#X obj 727 618 button 2.5 -3.5;
#X obj 771 486 button 3.5 -0.5;
#X obj 771 530 button 3.5 -1.5;
#X obj 771 574 button 3.5 -2.5;
#X obj 771 618 button 3.5 -3.5;
#X obj 3 27 bng 90 250 50 0 start empty empty 17 7 0 10 -257985 -1
-1;
#X obj 28 749 colorRGB 1 0 0;
#X msg 224 852 read -resize hihat.wav sound1;
#X msg 224 873 read -resize snare.wav sound2;
#X obj 179 584 bng 15 250 50 0 empty empty empty 17 7 0 10 -262144
-1 -1;
#X obj 178 668 bng 15 250 50 0 empty empty empty 17 7 0 10 -262144
-1 -1;
#X obj 232 709 % 16;
#X obj 178 709 i;
#X floatatom 178 792 5 0 0 0 - - -;
#X obj 178 730 > 7;
#X obj 178 751 * -4;
#X obj 230 579 r tempo;
#X obj 229 667 r tempo;
#X obj 2 1 cnv 15 100 25 empty empty START 20 12 1 20 -257985 -66577
0;
#X obj 94 1 cnv 15 200 250 empty empty Option 20 12 0 14 -257985 -66577
0;
#X floatatom 113 34 10 100 1000 0 - melodytempo tempo;
#X text 184 34 tempo;
#X obj 224 832 r start;
#X obj 114 63 bng 30 250 50 0 set1 empty empty 17 7 0 10 -258113 -1
-1;
#X obj 114 97 bng 30 250 50 0 set2 empty empty 17 7 0 10 -260097 -1
-1;
#X obj 114 130 bng 30 250 50 0 set3 empty empty 17 7 0 10 -4034 -1
-1;
#X obj 273 832 r set1;
#X obj 681 852 soundfiler;
#X obj 681 873 soundfiler;
#X obj 681 895 soundfiler;
#X obj 681 916 soundfiler;
#X obj 484 833 r set2;
#X msg 484 852 read -resize melody1.wav sound1;
#X msg 484 873 read -resize beat1.wav sound2;
#X msg 484 895 read -resize beat2.wav sound3;
#X msg 484 916 read -resize beat3.wav sound4;
#X floatatom 68 1073 5 0 0 0 - output1 -;
#X obj 57 1123 bng 15 250 50 0 empty empty empty 17 7 0 10 -262144
-1 -1;
#X obj 57 1103 spigot;
#X floatatom 165 1073 5 0 0 0 - output2 -;
#X obj 154 1123 bng 15 250 50 0 empty empty empty 17 7 0 10 -262144
-1 -1;
#X obj 154 1103 spigot;
#X floatatom 262 1074 5 0 0 0 - output3 -;
#X obj 251 1124 bng 15 250 50 0 empty empty empty 17 7 0 10 -262144
-1 -1;
#X obj 251 1104 spigot;
#X floatatom 359 1074 5 0 0 0 - output4 -;
#X obj 348 1124 bng 15 250 50 0 empty empty empty 17 7 0 10 -262144
-1 -1;
#X obj 348 1104 spigot;
#X obj 179 603 metro 300;
#X obj 178 688 metro 300;
#X obj 681 936 soundfiler;
#X obj 681 958 soundfiler;
#X obj 681 979 soundfiler;
#X msg 484 936 read -resize melody2.wav sound5;
#X msg 484 958 read -resize melody3.wav sound6;
#X msg 484 979 read -resize melody4.wav sound7;
#N canvas 0 50 450 250 (subpatch) 0;
#X array sound5 54481 float 2;
#X coords 0 1 54481 -1 200 140 1;
#X restore 750 11 graph;
#N canvas 0 50 450 250 (subpatch) 0;
#X array sound6 54481 float 2;
#X coords 0 1 54481 -1 200 140 1;
#X restore 750 163 graph;
#N canvas 0 50 450 250 (subpatch) 0;
#X array sound7 54481 float 2;
#X coords 0 1 54481 -1 200 140 1;
#X restore 952 11 graph;
#X floatatom 455 1074 5 0 0 0 - output5 -;
#X obj 444 1124 bng 15 250 50 0 empty empty empty 17 7 0 10 -262144
-1 -1;
#X obj 444 1104 spigot;
#X floatatom 552 1073 5 0 0 0 - output6 -;
#X obj 541 1123 bng 15 250 50 0 empty empty empty 17 7 0 10 -262144
-1 -1;
#X obj 541 1103 spigot;
#X floatatom 648 1073 5 0 0 0 - output7 -;
#X obj 637 1123 bng 15 250 50 0 empty empty empty 17 7 0 10 -262144
-1 -1;
#X obj 637 1103 spigot;
#X obj 444 1142 tabplay~ sound5;
#X obj 541 1141 tabplay~ sound6;
#X obj 637 1141 tabplay~ sound7;
#X obj 414 935 soundfiler;
#X obj 414 957 soundfiler;
#X obj 414 978 soundfiler;
#X msg 224 935 read -resize hihat.wav sound5;
#X msg 224 957 read -resize hihat.wav sound6;
#X msg 224 978 read -resize hihat.wav sound7;
#X obj 948 850 soundfiler;
#X obj 751 830 r set3;
#X msg 751 850 read -resize melody5.wav sound7;
#X obj 114 163 bng 30 250 50 0 set4 empty empty 17 7 0 10 -4160 -1
-1;
#X obj 947 891 soundfiler;
#X obj 750 871 r set4;
#X msg 750 891 read -resize melody1.wav sound5;
#X obj 947 911 soundfiler;
#X msg 750 911 read -resize melody1.wav sound6;
#X obj 947 932 soundfiler;
#X msg 750 932 read -resize melody1.wav sound7;
#X text 151 69 drum set;
#X text 151 103 melody 1;
#X text 151 136 melody 2;
#X text 151 168 melody 3;
#X obj 681 998 soundfiler;
#N canvas 0 50 450 250 (subpatch) 0;
#X array sound8 194248 float 2;
#X coords 0 1 194248 -1 200 140 1;
#X restore 952 163 graph;
#X obj 733 1140 tabplay~ sound8;
#X floatatom 742 1056 5 0 0 0 - end -;
#X obj 742 1076 == 0;
#X obj 732 1099 spigot;
#X obj 733 1122 bng 15 250 50 0 empty empty empty 17 7 0 10 -262144
-1 -1;
#X obj 414 998 soundfiler;
#X msg 224 998 read -resize kick.wav sound8;
#X msg 484 998 read -resize end.wav sound8;
#X obj 195 1198 lop~;
#X obj 180 1223 output~;
#X obj 114 196 bng 30 250 50 0 set5 empty empty 17 7 0 10 -159808 -1
-1;
#X text 151 204 fade out;
#X obj 504 1165 cnv 15 220 170 empty empty fade_out 20 12 0 14 -261682
-66577 0;
#X obj 520 1288 hsl 128 15 0 127 0 0 empty empty empty -2 -8 0 10 -262144
-1 -1 12700 1;
#X obj 517 1308 mtof;
#X obj 517 1207 r set5;
#X obj 554 1268 - 1;
#X obj 517 1268 f 127;
#X obj 562 1207 r start;
#X msg 562 1228 127;
#X obj 612 1246 spigot;
#X obj 612 1207 metro 1;
#X msg 612 1226 127;
#X obj 517 1248 metro 30;
#X obj 517 1228 tgl 15 0 empty empty empty 17 7 0 10 -262144 -1 -1
0 1;
#X msg 612 1267 0;
#X obj 751 999 s melodytempo;
#X msg 751 978 300;
#X obj 658 1286 s fadeout;
#X obj 658 1266 spigot;
#X obj 689 1247 == 0;
#X msg 658 1247 0;
#X obj 643 1227 < -100;
#X obj 331 613 endLED;
#X obj 331 591 tgl 15 0 empty empty empty 17 7 0 10 -262144 -1 -1 0
1;
#X floatatom 340 485 5 0 0 0 - end -;
#X obj 340 505 == 0;
#X obj 330 528 spigot;
#X obj 378 573 bng 15 250 50 0 empty empty empty 17 7 0 10 -262144
-1 -1;
#X obj 378 593 delay 2400;
#X obj 378 634 bng 15 250 50 0 boom empty empty 17 7 0 10 -262144 -1
-1;
#X obj 378 614 delay 1800;
#X obj 390 529 bng 15 250 50 0 empty set2 empty 17 7 0 10 -262144 -1
-1;
#X msg 390 549 1;
#X obj 330 550 spigot;
#X obj 390 488 bng 15 250 50 0 empty set1 empty 17 7 0 10 -262144 -1
-1;
#X msg 390 508 0;
#X obj 407 529 bng 15 250 50 0 empty set3 empty 17 7 0 10 -262144 -1
-1;
#X obj 424 529 bng 15 250 50 0 empty set4 empty 17 7 0 10 -262144 -1
-1;
#X obj 733 1161 *~ 1.5;
#X connect 7 0 6 0;
#X connect 8 0 6 0;
#X connect 9 0 22 0;
#X connect 9 1 11 1;
#X connect 10 0 11 0;
#X connect 11 0 24 0;
#X connect 12 0 19 0;
#X connect 13 1 17 0;
#X connect 14 0 21 0;
#X connect 14 1 16 1;
#X connect 15 0 16 0;
#X connect 16 0 18 0;
#X connect 17 0 14 0;
#X connect 18 0 26 0;
#X connect 19 0 25 0;
#X connect 21 0 15 0;
#X connect 22 0 10 0;
#X connect 23 0 20 0;
#X connect 24 0 36 0;
#X connect 25 0 9 0;
#X connect 26 0 23 0;
#X connect 27 0 57 0;
#X connect 27 1 29 1;
#X connect 28 0 29 0;
#X connect 29 0 39 0;
#X connect 30 0 32 0;
#X connect 31 0 37 0;
#X connect 32 0 38 0;
#X connect 33 0 34 0;
#X connect 33 0 35 0;
#X connect 34 0 40 0;
#X connect 35 0 38 1;
#X connect 36 0 13 0;
#X connect 38 0 27 0;
#X connect 39 0 131 0;
#X connect 40 0 33 1;
#X connect 51 0 53 0;
#X connect 52 0 54 0;
#X connect 53 0 52 0;
#X connect 55 0 51 0;
#X connect 57 0 28 0;
#X connect 58 0 136 0;
#X connect 59 0 38 2;
#X connect 59 0 138 0;
#X connect 60 0 64 0;
#X connect 61 0 65 0;
#X connect 70 0 227 0;
#X connect 71 0 227 0;
#X connect 72 0 227 0;
#X connect 73 0 227 0;
#X connect 130 0 12 0;
#X connect 130 0 55 0;
#X connect 130 0 30 0;
#X connect 130 0 134 0;
#X connect 130 0 135 0;
#X connect 131 0 31 0;
#X connect 132 0 62 0;
#X connect 133 0 63 0;
#X connect 134 0 173 0;
#X connect 135 0 174 0;
#X connect 136 0 137 1;
#X connect 137 0 58 0;
#X connect 137 0 139 0;
#X connect 139 0 140 0;
#X connect 140 0 59 0;
#X connect 141 0 173 1;
#X connect 142 0 174 1;
#X connect 147 0 132 0;
#X connect 147 0 133 0;
#X connect 147 0 61 0;
#X connect 147 0 60 0;
#X connect 147 0 49 0;
#X connect 147 0 8 0;
#X connect 147 0 199 0;
#X connect 147 0 201 0;
#X connect 147 0 200 0;
#X connect 147 0 225 0;
#X connect 151 0 132 0;
#X connect 151 0 133 0;
#X connect 151 0 61 0;
#X connect 151 0 60 0;
#X connect 151 0 199 0;
#X connect 151 0 201 0;
#X connect 151 0 200 0;
#X connect 151 0 225 0;
#X connect 156 0 157 0;
#X connect 156 0 159 0;
#X connect 156 0 160 0;
#X connect 156 0 158 0;
#X connect 156 0 178 0;
#X connect 156 0 180 0;
#X connect 156 0 179 0;
#X connect 156 0 226 0;
#X connect 156 0 246 0;
#X connect 157 0 152 0;
#X connect 158 0 153 0;
#X connect 159 0 154 0;
#X connect 160 0 155 0;
#X connect 161 0 163 1;
#X connect 161 0 163 0;
#X connect 162 0 70 0;
#X connect 163 0 162 0;
#X connect 164 0 166 1;
#X connect 164 0 166 0;
#X connect 165 0 71 0;
#X connect 166 0 165 0;
#X connect 167 0 169 1;
#X connect 167 0 169 0;
#X connect 168 0 72 0;
#X connect 169 0 168 0;
#X connect 170 0 172 1;
#X connect 170 0 172 0;
#X connect 171 0 73 0;
#X connect 172 0 171 0;
#X connect 173 0 33 0;
#X connect 174 0 137 0;
#X connect 178 0 175 0;
#X connect 179 0 176 0;
#X connect 180 0 177 0;
#X connect 184 0 186 1;
#X connect 184 0 186 0;
#X connect 185 0 193 0;
#X connect 186 0 185 0;
#X connect 187 0 189 1;
#X connect 187 0 189 0;
#X connect 188 0 194 0;
#X connect 189 0 188 0;
#X connect 190 0 192 1;
#X connect 190 0 192 0;
#X connect 191 0 195 0;
#X connect 192 0 191 0;
#X connect 193 0 227 0;
#X connect 194 0 227 0;
#X connect 195 0 227 0;
#X connect 199 0 196 0;
#X connect 200 0 197 0;
#X connect 201 0 198 0;
#X connect 203 0 204 0;
#X connect 203 0 157 0;
#X connect 203 0 226 0;
#X connect 203 0 179 0;
#X connect 203 0 178 0;
#X connect 203 0 160 0;
#X connect 203 0 159 0;
#X connect 203 0 158 0;
#X connect 203 0 246 0;
#X connect 204 0 202 0;
#X connect 207 0 208 0;
#X connect 207 0 210 0;
#X connect 207 0 212 0;
#X connect 207 0 157 0;
#X connect 207 0 226 0;
#X connect 207 0 160 0;
#X connect 207 0 159 0;
#X connect 207 0 158 0;
#X connect 207 0 246 0;
#X connect 208 0 206 0;
#X connect 210 0 209 0;
#X connect 212 0 211 0;
#X connect 219 0 268 0;
#X connect 220 0 221 0;
#X connect 221 0 222 0;
#X connect 221 0 222 1;
#X connect 222 0 223 0;
#X connect 223 0 219 0;
#X connect 225 0 224 0;
#X connect 226 0 217 0;
#X connect 227 0 228 0;
#X connect 227 0 228 1;
#X connect 232 0 233 0;
#X connect 232 0 249 0;
#X connect 232 0 250 0;
#X connect 233 0 227 1;
#X connect 234 0 238 0;
#X connect 234 0 243 0;
#X connect 235 0 236 1;
#X connect 236 0 235 0;
#X connect 236 0 232 0;
#X connect 236 0 251 0;
#X connect 237 0 238 0;
#X connect 237 0 240 0;
#X connect 238 0 232 0;
#X connect 239 0 236 1;
#X connect 239 0 244 0;
#X connect 239 0 238 0;
#X connect 240 0 241 0;
#X connect 241 0 239 0;
#X connect 242 0 236 0;
#X connect 243 0 242 0;
#X connect 244 0 243 0;
#X connect 246 0 245 0;
#X connect 248 0 247 0;
#X connect 249 0 248 1;
#X connect 250 0 248 0;
#X connect 251 0 239 1;
#X connect 253 0 252 0;
#X connect 254 0 255 0;
#X connect 255 0 256 0;
#X connect 255 0 256 1;
#X connect 256 0 263 0;
#X connect 257 0 253 0;
#X connect 257 0 258 0;
#X connect 258 0 253 0;
#X connect 258 0 260 0;
#X connect 260 0 259 0;
#X connect 261 0 262 0;
#X connect 262 0 263 1;
#X connect 263 0 257 0;
#X connect 264 0 265 0;
#X connect 265 0 263 1;
#X connect 266 0 262 0;
#X connect 267 0 262 0;
#X connect 268 0 227 0;
