#N canvas -9 -9 1920 976 10;
#X obj 14 2 cnv 15 60 60 empty empty 시작 20 12 0 14 -232576 -66577
0;
#X obj 4 67 cnv 15 80 70 empty empty 구간반복 20 12 0 14 -204800
-66577 0;
#X obj 2 145 cnv 15 220 300 empty empty 기본_세팅 20 12 0 14 -261234
-66577 0;
#X obj 94 59 cnv 15 480 80 empty empty 좌우음향 20 12 0 14 -262130
-66577 0;
#N canvas 0 50 450 250 (subpatch) 0;
#X array array 1.82366e+006 float 2;
#X coords 0 1 1.82366e+006 -1 200 140 1;
#X restore 10 281 graph;
#X obj 8 248 soundfiler;
#X msg 8 222 read -resize tuna.wav array;
#X msg 8 187 \; pd dsp 1 \;;
#X msg 29 32 bang;
#X obj 257 216 tabplay~ array;
#X obj 264 326 output~;
#X floatatom 372 227 5 0 0 0 - - -;
#X obj 372 269 line 0 1;
#X obj 373 246 pack 0 50;
#X obj 376 204 hsl 128 15 0 360 0 0 empty empty empty -2 -8 0 10 -262144
-1 -1 3175 1;
#X obj 256 304 earplug~ 0 -25;
#X obj 106 92 delay 1800;
#X obj 176 92 delay 1100;
#X obj 303 91 delay 1100;
#X obj 243 92 delay 700;
#X obj 370 91 delay 700;
#X obj 431 91 delay 1100;
#X msg 107 113 0;
#X msg 176 113 90;
#X msg 242 113 270;
#X msg 305 111 90;
#X msg 370 110 270;
#X msg 431 112 90;
#X obj 26 92 bng 15 250 50 0 empty empty empty 17 7 0 10 -262144 -1
-1;
#X msg 26 112 79380;
#X msg 559 112 90;
#X msg 621 110 270;
#X msg 680 112 90;
#X obj 559 91 delay 450;
#X obj 619 91 delay 450;
#X obj 498 91 delay 800;
#X msg 500 110 270;
#X obj 680 91 delay 950;
#X obj 98 15 cnv 15 375 30 empty empty output~_dB_100으로_키우고_bang_눌러서_시작!
20 12 0 14 -261682 -66577 0;
#X connect 6 0 5 0;
#X connect 8 0 9 0;
#X connect 8 0 16 0;
#X connect 8 0 22 0;
#X connect 8 0 7 0;
#X connect 8 0 6 0;
#X connect 9 0 15 0;
#X connect 9 1 8 0;
#X connect 11 0 13 0;
#X connect 12 0 15 1;
#X connect 13 0 12 0;
#X connect 14 0 11 0;
#X connect 15 0 10 0;
#X connect 15 1 10 1;
#X connect 16 0 23 0;
#X connect 16 0 17 0;
#X connect 17 0 19 0;
#X connect 17 0 24 0;
#X connect 18 0 26 0;
#X connect 18 0 20 0;
#X connect 19 0 25 0;
#X connect 19 0 18 0;
#X connect 20 0 27 0;
#X connect 20 0 21 0;
#X connect 21 0 36 0;
#X connect 21 0 35 0;
#X connect 22 0 14 0;
#X connect 23 0 14 0;
#X connect 24 0 14 0;
#X connect 25 0 14 0;
#X connect 26 0 14 0;
#X connect 27 0 14 0;
#X connect 28 0 29 0;
#X connect 28 0 23 0;
#X connect 28 0 17 0;
#X connect 29 0 9 0;
#X connect 30 0 14 0;
#X connect 31 0 14 0;
#X connect 32 0 14 0;
#X connect 33 0 31 0;
#X connect 33 0 34 0;
#X connect 34 0 32 0;
#X connect 34 0 37 0;
#X connect 35 0 30 0;
#X connect 35 0 33 0;
#X connect 36 0 14 0;
#X connect 37 0 28 0;
