#N canvas -9 -9 1920 976 10;
#N canvas 0 50 450 250 (subpatch) 0;
#X array music 9.06808e+006 float 2;
#X coords 0 1 9.06808e+006 -1 200 140 1 0 0;
#X restore 334 53 graph;
#N canvas 0 50 450 250 (subpatch) 0;
#X array effect 598016 float 2;
#X coords 0 1 598016 -1 200 140 1;
#X restore 537 53 graph;
#X obj 12 56 cnv 15 150 130 empty empty Select_music 20 12 0 14 -261682
-66577 0;
#X obj 23 85 bng 15 250 50 0 empty empty empty 17 7 0 10 -262144 -1
-1;
#X obj 23 105 openpanel;
#X obj 22 152 soundfiler;
#X msg 22 132 read -resize \$1 music;
#X obj 168 56 cnv 15 150 130 empty empty Select_effect 20 12 0 14 -261682
-66577 0;
#X obj 175 88 bng 15 250 50 0 empty empty empty 17 7 0 10 -262144 -1
-1;
#X obj 175 108 openpanel;
#X obj 175 156 soundfiler;
#X msg 175 136 read -resize \$1 effect;
#X text 18 12 1 Select music & effect file;
#X text 19 28 2 Press start button;
#X obj 505 240 bng 15 250 50 0 empty empty empty 17 7 0 10 -262144
-1 -1;
#X msg 505 267 \; pd dsp 0 \;;
#X text 524 239 STOP;
#X obj 167 240 cnv 15 170 230 empty empty empty 20 12 0 14 -204800
-66577 0;
#X obj 173 334 cnv 15 160 100 empty empty empty 20 12 0 14 -204786
-66577 0;
#X obj 7 280 cnv 15 150 60 empty empty empty 20 12 0 14 -262130 -66577
0;
#X obj 347 239 cnv 15 150 100 empty empty empty 20 12 0 14 -204786
-66577 0;
#X obj 11 411 dac~;
#X msg 11 286 set music;
#X obj 110 207 bng 15 250 50 0 empty empty empty 17 7 0 10 -262144
-1 -1;
#X obj 11 310 tabplay~;
#X msg 9 241 \; pd dsp 1 \;;
#X obj 11 385 +~;
#X obj 355 310 writesf~ 2;
#X msg 372 269 start;
#X msg 414 288 stop;
#X msg 355 243 open result.wav;
#X text 128 204 START!;
#X msg 76 286 5.9094e+006;
#X obj 414 267 delay 71000;
#X obj 177 415 vcf~ 220 1;
#X obj 190 390 mtof;
#X obj 177 297 tabplay~;
#X msg 177 269 set effect;
#X floatatom 190 371 5 0 0 0 - - -;
#X obj 260 367 metro 100;
#X obj 260 391 f 500;
#X obj 260 341 delay 51000;
#X msg 259 312 44100;
#X obj 259 292 metro 10000;
#X msg 259 272 stop;
#X obj 259 251 delay 71000;
#X obj 9 347 cnv 15 150 25 empty empty empty 20 12 0 14 -232576 -66577
0;
#X msg 190 350 500;
#X obj 297 391 - 3;
#X msg 224 391 1;
#X obj 177 437 *~ 0.15;
#X text 125 319 song;
#X text 264 450 rain effect;
#X text 266 416 vcf filter;
#X text 434 320 save file;
#X text 90 351 hip filter;
#X obj 11 351 hip~ 750;
#X connect 3 0 4 0;
#X connect 4 0 6 0;
#X connect 6 0 5 0;
#X connect 8 0 9 0;
#X connect 9 0 11 0;
#X connect 11 0 10 0;
#X connect 14 0 15 0;
#X connect 22 0 24 0;
#X connect 23 0 22 0;
#X connect 23 0 32 0;
#X connect 23 0 25 0;
#X connect 23 0 30 0;
#X connect 23 0 28 0;
#X connect 23 0 33 0;
#X connect 23 0 37 0;
#X connect 23 0 49 0;
#X connect 23 0 47 0;
#X connect 23 0 41 0;
#X connect 23 0 45 0;
#X connect 23 0 43 0;
#X connect 24 0 56 0;
#X connect 26 0 27 0;
#X connect 26 0 21 0;
#X connect 26 0 21 1;
#X connect 28 0 27 0;
#X connect 29 0 27 0;
#X connect 30 0 27 0;
#X connect 32 0 24 0;
#X connect 33 0 29 0;
#X connect 34 0 50 0;
#X connect 35 0 34 1;
#X connect 36 0 34 0;
#X connect 37 0 36 0;
#X connect 38 0 35 0;
#X connect 39 0 40 0;
#X connect 40 0 38 0;
#X connect 40 0 48 0;
#X connect 41 0 39 0;
#X connect 42 0 36 0;
#X connect 43 0 42 0;
#X connect 44 0 43 0;
#X connect 44 0 36 0;
#X connect 45 0 44 0;
#X connect 47 0 38 0;
#X connect 48 0 40 1;
#X connect 49 0 34 2;
#X connect 50 0 26 1;
#X connect 56 0 26 0;
