#N canvas -9 -9 1920 976 10;
#X obj 8 8 cnv 15 60 90 empty empty 시작 20 12 0 10 -191407 -66577
0;
#X obj 74 6 cnv 50 80 100 empty empty 종료 20 12 0 14 -262130 -66577
0;
#X obj 477 5 cnv 15 220 310 empty empty 2.화음_추가 20 12 0 14
-204786 -66577 0;
#X obj 85 113 tgl 15 0 empty empty empty 17 7 0 10 -262144 -1 -1 1
1;
#X msg 80 65 \; pd dsp 0 \;;
#X msg 85 141 \; pd dsp 1 \;;
#X obj 12 37 bng 50 250 50 0 empty empty empty 17 7 0 10 -262144 -1
-1;
#X obj 162 6 cnv 15 300 310 empty empty 1.학교종이_땡땡땡_반복
20 12 0 14 -204800 -66577 0;
#X obj 184 59 t b b;
#X obj 184 80 f;
#X obj 184 129 sel 0 1 2 3 4 5 6 7;
#X msg 182 169 67;
#X obj 181 191 mtof;
#X obj 181 275 *~;
#X obj 182 295 dac~;
#X obj 211 80 + 1;
#X msg 211 169 69;
#X msg 242 169 64;
#X obj 314 180 tgl 15 0 empty empty empty 17 7 0 10 -262144 -1 -1 1
1;
#X obj 288 202 spigot;
#X obj 288 244 vline~;
#X obj 288 153 != 6;
#X msg 288 223 1 5 \, 1 95 100 \, 0 250 350;
#X obj 184 105 % 8;
#X obj 184 36 metro 500;
#X obj 496 83 t b b;
#X obj 496 104 f;
#X obj 496 153 sel 0 1 2 3 4 5 6 7;
#X obj 495 210 mtof;
#X obj 523 104 + 1;
#X obj 496 129 % 8;
#X obj 496 60 metro 500;
#X obj 564 37 tgl 15 0 empty empty empty 17 7 0 10 -262144 -1 -1 1
1;
#X msg 495 186 64;
#X msg 524 186 65;
#X msg 555 186 60;
#X obj 494 293 +~;
#X obj 495 36 delay 8000;
#X obj 494 272 *~ 0.4;
#X obj 180 252 *~ 0.4;
#X obj 180 231 osc~;
#X obj 494 250 osc~;
#X obj 180 210 +~;
#X obj 351 47 cnv 15 100 120 empty empty 3.주파수변환1 20 12 0
11 -261234 -66577 0;
#X obj 430 74 tgl 15 0 empty empty empty 17 7 0 10 -262144 -1 -1 1
1;
#X obj 356 73 delay 16000;
#X obj 358 142 *~ 1;
#X obj 358 121 osc~;
#X msg 357 98 3;
#X msg 395 97 100;
#X obj 589 182 cnv 15 100 120 empty empty 4.주파수변환2 20 12
0 11 -261234 -66577 0;
#X obj 668 209 tgl 15 0 empty empty empty 17 7 0 10 -262144 -1 -1 1
1;
#X obj 596 277 *~ 1;
#X obj 596 256 osc~;
#X msg 595 233 3;
#X msg 633 232 100;
#X obj 494 230 +~;
#X obj 594 208 delay 24000;
#X obj 80 37 delay 32000;
#X connect 3 0 5 0;
#X connect 3 0 24 0;
#X connect 6 0 3 0;
#X connect 6 0 37 0;
#X connect 6 0 45 0;
#X connect 6 0 58 0;
#X connect 6 0 57 0;
#X connect 8 0 9 0;
#X connect 8 1 19 0;
#X connect 9 0 15 0;
#X connect 9 0 23 0;
#X connect 10 0 11 0;
#X connect 10 1 11 0;
#X connect 10 2 16 0;
#X connect 10 3 16 0;
#X connect 10 4 11 0;
#X connect 10 5 11 0;
#X connect 10 6 17 0;
#X connect 11 0 12 0;
#X connect 12 0 42 0;
#X connect 13 0 14 0;
#X connect 13 0 14 1;
#X connect 15 0 9 1;
#X connect 16 0 12 0;
#X connect 17 0 12 0;
#X connect 18 0 19 1;
#X connect 19 0 22 0;
#X connect 20 0 13 1;
#X connect 21 0 18 0;
#X connect 22 0 20 0;
#X connect 23 0 10 0;
#X connect 23 0 21 0;
#X connect 24 0 8 0;
#X connect 25 0 26 0;
#X connect 26 0 29 0;
#X connect 26 0 30 0;
#X connect 27 0 33 0;
#X connect 27 1 33 0;
#X connect 27 2 34 0;
#X connect 27 3 34 0;
#X connect 27 4 33 0;
#X connect 27 5 33 0;
#X connect 27 6 35 0;
#X connect 28 0 56 0;
#X connect 29 0 26 1;
#X connect 30 0 27 0;
#X connect 31 0 25 0;
#X connect 32 0 31 0;
#X connect 33 0 28 0;
#X connect 34 0 28 0;
#X connect 35 0 28 0;
#X connect 36 0 13 0;
#X connect 37 0 32 0;
#X connect 38 0 36 0;
#X connect 39 0 36 1;
#X connect 40 0 39 0;
#X connect 41 0 38 0;
#X connect 42 0 40 0;
#X connect 44 0 48 0;
#X connect 44 0 49 0;
#X connect 45 0 44 0;
#X connect 46 0 42 1;
#X connect 47 0 46 0;
#X connect 48 0 47 0;
#X connect 49 0 46 1;
#X connect 51 0 54 0;
#X connect 51 0 55 0;
#X connect 52 0 56 1;
#X connect 53 0 52 0;
#X connect 54 0 53 0;
#X connect 55 0 52 1;
#X connect 56 0 41 0;
#X connect 57 0 51 0;
#X connect 58 0 4 0;
#X coords 0 19520 40 19500 85 60 0;
