#N canvas 1172 11 705 982 10;
#X obj 18 94 gemhead;
#X obj 18 115 t a a;
#X obj 18 157 until;
#X obj 18 214 gemlist;
#X obj 18 288 square;
#X obj 18 309 translateXYZ 0.5 0 0;
#X msg 71 266 draw line;
#X obj 16 45 gemwin;
#X msg 24 26 0 \, destroy;
#X obj 18 74 tgl 15 0 empty empty empty 17 7 0 10 -262144 -1 -1 0 1
;
#X msg 16 6 reset \, dimen 500 500 \, create \, 1;
#X obj 18 330 rotateXYZ 0 0 10;
#X obj 18 351 scaleXYZ 0.9 0.9 0.9;
#X obj 226 50 t a a;
#X msg 226 71 10;
#X obj 226 92 until;
#X obj 226 113 gemlist;
#X obj 226 9 tgl 15 0 empty empty empty 17 7 0 10 -262144 -1 -1 0 1
;
#X obj 358 28 t a a;
#X msg 358 49 5;
#X obj 358 70 until;
#X obj 358 91 gemlist;
#X obj 226 29 gemhead 51;
#X obj 358 112 square 0.2;
#X obj 358 133 translateXYZ 0 0.1 0;
#X obj 226 134 translateXYZ 0.5 0 0;
#X obj 226 235 t a a;
#X obj 226 276 until;
#X obj 226 297 gemlist;
#X obj 226 160 tgl 15 0 empty empty empty 17 7 0 10 -262144 -1 -1 0
1;
#X obj 491 231 t a a;
#X obj 491 273 until;
#X obj 491 294 gemlist;
#X obj 491 315 square 0.2;
#X obj 226 338 translateXYZ 0.5 0 0;
#X obj 226 179 gemhead 52;
#X obj 226 318 t a a;
#X obj 491 209 separator;
#X obj 491 336 translateXYZ 0 0 0.5;
#X obj 362 232 t a a;
#X obj 362 274 until;
#X obj 362 295 gemlist;
#X obj 362 210 separator;
#X obj 362 316 t a a;
#X msg 570 312 draw line;
#X msg 226 256 20;
#X obj 226 380 scaleXYZ 0.9 0.9 0.9;
#X obj 362 379 scaleXYZ 0.9 0.9 0.9;
#X msg 362 253 20;
#X obj 491 379 scaleXYZ 0.9 0.9 0.9;
#X msg 491 252 20;
#X obj 226 200 translateXYZ -1 -1 0;
#X obj 362 337 translateXYZ 0 0.5 0;
#X floatatom 297 407 5 0 0 0 - - -;
#X obj 226 359 rotateXYZ 5 0 0;
#X obj 362 358 rotateXYZ 0 5 0;
#X obj 491 358 rotateXYZ 5 0 0;
#X floatatom 416 413 5 0 0 0 - - -;
#X floatatom 548 424 5 0 0 0 - - -;
#X obj 75 168 f;
#X obj 75 189 * 0.01;
#X obj 75 210 expr 1 - $f1;
#X obj 102 168 + 1;
#X obj 129 168 % 100;
#X msg 18 136 25;
#X obj 18 182 t a a;
#X msg 104 113 set \$1;
#X floatatom 176 55 5 0 0 0 - - -;
#X obj 176 75 t b f;
#X obj 176 117 /;
#X floatatom 176 138 5 0 0 0 - - -;
#X msg 176 96 1;
#X obj 18 235 colorRGB 0 0 1;
#X obj 23 468 tgl 15 0 empty empty empty 17 7 0 10 -262144 -1 -1 0
1;
#X obj 23 509 pix_image e_ong.jpg;
#X obj 23 612 pix_texture;
#X obj 23 633 square 3;
#X obj 63 548 tgl 15 0 empty empty empty 17 7 0 10 -262144 -1 -1 0
1;
#X msg 63 568 quality \$1;
#X obj 146 547 tgl 15 0 empty empty empty 17 7 0 10 -262144 -1 -1 0
1;
#X obj 146 567 metro 100;
#X obj 146 588 f;
#X obj 172 617 sin;
#X floatatom 172 659 5 0 0 0 - - -;
#X obj 172 588 + 0.5;
#X obj 172 638 + 3;
#X obj 245 442 tgl 15 0 empty empty empty 17 7 0 10 -262144 -1 -1 0
1;
#X obj 245 462 gemhead 54;
#X obj 245 483 rotateXYZ;
#X obj 245 504 translateXYZ 0 1 0;
#X obj 245 525 colorRGB;
#X obj 245 546 alpha;
#X obj 245 567 part_head 1000;
#X obj 245 588 part_velocity sphere 0 0.2 0 0.3;
#X obj 245 630 part_killold 10;
#X obj 245 651 part_render;
#X obj 245 693 pix_texture;
#X obj 245 672 pix_image e_ong.jpg;
#X obj 371 505 hsl 128 15 0 127 0 0 empty empty empty -2 -8 0 10 -262144
-1 -1 0 1;
#X obj 368 525 / 128;
#X obj 415 529 hsl 128 15 0 127 0 0 empty empty empty -2 -8 0 10 -262144
-1 -1 0 1;
#X obj 412 549 / 128;
#X obj 458 549 hsl 128 15 0 127 0 0 empty empty empty -2 -8 0 10 -262144
-1 -1 0 1;
#X obj 455 569 / 128;
#X obj 495 569 hsl 128 15 0 127 0 0 empty empty empty -2 -8 0 10 -262144
-1 -1 0 1;
#X obj 492 589 / 128;
#X floatatom 314 462 5 0 0 0 - - -;
#X floatatom 350 462 5 0 0 0 - - -;
#X msg 338 567 speed 0.1;
#X obj 245 609 part_source 10;
#X obj 245 714 sphere 1 3;
#X obj 17 738 tgl 15 0 empty empty empty 17 7 0 10 -262144 -1 -1 0
1;
#X obj 23 488 gemhead 53;
#X obj 17 799 pix_invert;
#X obj 17 879 pix_add;
#X obj 17 900 pix_texture;
#X obj 17 921 square 3;
#X obj 17 758 gemhead 55;
#X obj 83 799 tgl 15 0 empty empty empty 17 7 0 10 -262144 -1 -1 0
1;
#X obj 208 822 spigot;
#X obj 164 822 spigot;
#X obj 252 822 spigot;
#X obj 296 822 spigot;
#X obj 103 878 pix_subtract;
#X obj 208 877 pix_multiply;
#X obj 313 876 pix_diff;
#X obj 345 710 bng 15 250 50 0 empty empty empty 17 7 0 10 -262144
-1 -1;
#X obj 345 730 f;
#X obj 345 763 == 0;
#X obj 345 786 tgl 15 0 empty empty empty 17 7 0 10 -262144 -1 -1 0
1;
#X obj 378 786 tgl 15 0 empty empty empty 17 7 0 10 -262144 -1 -1 0
1;
#X obj 409 786 tgl 15 0 empty empty empty 17 7 0 10 -262144 -1 -1 0
1;
#X obj 441 786 tgl 15 0 empty empty empty 17 7 0 10 -262144 -1 -1 0
1;
#X obj 371 730 + 1;
#X obj 397 730 % 4;
#X obj 378 763 == 1;
#X obj 409 763 == 2;
#X obj 441 763 == 3;
#X obj 164 777 pix_image k.png;
#X obj 17 778 pix_image fox.png;
#X obj 17 953 tgl 15 0 empty empty empty 17 7 0 10 -262144 -1 -1 0
1;
#X obj 17 994 pix_image e_ong.jpg;
#X obj 17 1097 pix_texture;
#X obj 17 1118 square 3;
#X obj 164 756 gemhead 56;
#X obj 17 1077 pix_threshold;
#X obj 112 1015 hsl 128 15 0 127 0 0 empty empty empty -2 -8 0 10 -262144
-1 -1 5800 1;
#X obj 109 1035 / 128;
#X floatatom 109 1056 5 0 0 0 - - -;
#X msg 165 1057 1 0 0;
#X obj 258 950 tgl 15 0 empty empty empty 17 7 0 10 -262144 -1 -1 1
1;
#X obj 258 991 pix_image e_ong.jpg;
#X obj 258 1120 pix_texture;
#X obj 258 1141 square 3;
#X obj 290 1011 hsl 128 15 0 127 0 0 empty empty empty -2 -8 0 10 -262144
-1 -1 6900 1;
#X obj 287 1031 / 128;
#X floatatom 287 1052 5 0 0 0 - - -;
#X obj 258 1074 pix_alpha, f 17;
#X obj 258 1095 alpha;
#X obj 375 1037 hsl 128 15 0 127 0 0 empty empty empty -2 -8 0 10 -262144
-1 -1 9600 1;
#X obj 372 1057 / 128;
#X floatatom 372 1078 5 0 0 0 - - -;
#X obj 446 946 tgl 15 0 empty empty empty 17 7 0 10 -262144 -1 -1 1
1;
#X obj 446 987 color 1 0 0.5;
#X obj 446 1008 circle 3;
#X obj 258 970 gemhead 59;
#X obj 446 966 gemhead 57;
#X obj 17 973 gemhead 58;
#X msg 435 1098 0 0 0;
#X msg 418 1077 0.1 0.1 0.1;
#X connect 0 0 1 0;
#X connect 1 0 64 0;
#X connect 1 1 3 1;
#X connect 2 0 65 0;
#X connect 3 0 72 0;
#X connect 4 0 5 0;
#X connect 5 0 11 0;
#X connect 6 0 4 0;
#X connect 8 0 7 0;
#X connect 9 0 0 0;
#X connect 10 0 7 0;
#X connect 11 0 12 0;
#X connect 13 0 14 0;
#X connect 13 1 16 1;
#X connect 14 0 15 0;
#X connect 15 0 16 0;
#X connect 16 0 25 0;
#X connect 16 0 18 0;
#X connect 17 0 22 0;
#X connect 18 0 19 0;
#X connect 18 1 21 1;
#X connect 19 0 20 0;
#X connect 20 0 21 0;
#X connect 21 0 23 0;
#X connect 22 0 13 0;
#X connect 23 0 24 0;
#X connect 26 0 45 0;
#X connect 26 1 28 1;
#X connect 27 0 28 0;
#X connect 28 0 36 0;
#X connect 29 0 35 0;
#X connect 30 0 50 0;
#X connect 30 1 32 1;
#X connect 31 0 32 0;
#X connect 32 0 33 0;
#X connect 33 0 38 0;
#X connect 34 0 54 0;
#X connect 35 0 51 0;
#X connect 36 0 34 0;
#X connect 36 1 42 0;
#X connect 37 0 30 0;
#X connect 38 0 56 0;
#X connect 39 0 48 0;
#X connect 39 1 41 1;
#X connect 40 0 41 0;
#X connect 41 0 43 0;
#X connect 42 0 39 0;
#X connect 43 0 52 0;
#X connect 43 1 37 0;
#X connect 44 0 33 0;
#X connect 45 0 27 0;
#X connect 48 0 40 0;
#X connect 50 0 31 0;
#X connect 51 0 26 0;
#X connect 52 0 55 0;
#X connect 53 0 54 1;
#X connect 54 0 46 0;
#X connect 55 0 47 0;
#X connect 56 0 49 0;
#X connect 57 0 55 2;
#X connect 58 0 56 1;
#X connect 59 0 60 0;
#X connect 59 0 62 0;
#X connect 60 0 61 0;
#X connect 61 0 72 1;
#X connect 62 0 63 0;
#X connect 63 0 59 1;
#X connect 64 0 2 0;
#X connect 65 0 3 0;
#X connect 65 1 59 0;
#X connect 66 0 64 0;
#X connect 67 0 68 0;
#X connect 67 0 66 0;
#X connect 67 0 63 1;
#X connect 68 0 71 0;
#X connect 68 1 69 1;
#X connect 69 0 70 0;
#X connect 70 0 60 1;
#X connect 71 0 69 0;
#X connect 72 0 4 0;
#X connect 73 0 112 0;
#X connect 74 0 75 0;
#X connect 75 0 76 0;
#X connect 77 0 78 0;
#X connect 78 0 75 0;
#X connect 79 0 80 0;
#X connect 80 0 81 0;
#X connect 81 0 84 0;
#X connect 82 0 85 0;
#X connect 84 0 82 0;
#X connect 84 0 81 1;
#X connect 85 0 83 0;
#X connect 85 0 76 1;
#X connect 86 0 87 0;
#X connect 87 0 88 0;
#X connect 88 0 89 0;
#X connect 89 0 90 0;
#X connect 90 0 91 0;
#X connect 91 0 92 0;
#X connect 92 0 93 0;
#X connect 93 0 109 0;
#X connect 94 0 95 0;
#X connect 95 0 97 0;
#X connect 96 0 110 0;
#X connect 97 0 96 0;
#X connect 98 0 99 0;
#X connect 99 0 90 1;
#X connect 100 0 101 0;
#X connect 101 0 90 2;
#X connect 102 0 103 0;
#X connect 103 0 90 3;
#X connect 104 0 105 0;
#X connect 105 0 90 4;
#X connect 106 0 88 1;
#X connect 107 0 88 2;
#X connect 108 0 92 0;
#X connect 109 0 94 0;
#X connect 111 0 117 0;
#X connect 112 0 74 0;
#X connect 113 0 114 0;
#X connect 113 0 123 0;
#X connect 113 0 125 0;
#X connect 113 0 124 0;
#X connect 114 0 115 0;
#X connect 115 0 116 0;
#X connect 117 0 139 0;
#X connect 118 0 113 0;
#X connect 119 0 123 1;
#X connect 120 0 114 1;
#X connect 121 0 124 1;
#X connect 122 0 125 1;
#X connect 123 0 115 0;
#X connect 124 0 115 0;
#X connect 125 0 115 0;
#X connect 126 0 127 0;
#X connect 127 0 128 0;
#X connect 127 0 133 0;
#X connect 127 0 135 0;
#X connect 127 0 136 0;
#X connect 127 0 137 0;
#X connect 128 0 129 0;
#X connect 129 0 120 1;
#X connect 130 0 119 1;
#X connect 131 0 121 1;
#X connect 132 0 122 1;
#X connect 133 0 134 0;
#X connect 134 0 127 1;
#X connect 135 0 130 0;
#X connect 136 0 131 0;
#X connect 137 0 132 0;
#X connect 138 0 119 0;
#X connect 138 0 120 0;
#X connect 138 0 121 0;
#X connect 138 0 122 0;
#X connect 139 0 113 0;
#X connect 140 0 167 0;
#X connect 141 0 145 0;
#X connect 142 0 143 0;
#X connect 144 0 138 0;
#X connect 145 0 142 0;
#X connect 146 0 147 0;
#X connect 147 0 148 0;
#X connect 148 0 145 1;
#X connect 149 0 145 2;
#X connect 150 0 165 0;
#X connect 151 0 157 0;
#X connect 152 0 153 0;
#X connect 154 0 155 0;
#X connect 155 0 156 0;
#X connect 156 0 157 1;
#X connect 157 0 158 0;
#X connect 158 0 152 0;
#X connect 159 0 160 0;
#X connect 160 0 161 0;
#X connect 161 0 157 2;
#X connect 162 0 166 0;
#X connect 163 0 164 0;
#X connect 165 0 151 0;
#X connect 166 0 163 0;
#X connect 167 0 141 0;
#X connect 168 0 157 4;
#X connect 169 0 157 3;
