#N canvas -9 -9 1920 976 10;
#X obj 213 588 cnv 15 300 100 empty empty 위치_변화 20 12 0 14
-261234 -66577 0;
#X obj 532 65 cnv 15 500 510 empty empty 파티클_생성 20 12 0 14
-261682 -66577 0;
#X obj 534 586 cnv 15 720 100 empty empty 색깔_변화 20 12 0 14
-262130 -66577 0;
#X obj 18 146 cnv 15 500 430 empty empty 음악재생 20 12 0 14 -203904
-66577 0;
#X obj 37 236 output~;
#X obj 24 41 bng 50 250 50 0 empty empty empty 17 7 0 10 -162280 -1
-1;
#X obj 290 345 soundfiler;
#X obj 36 206 tabplay~ left;
#X obj 130 206 tabplay~ right;
#N canvas 0 50 450 250 (subpatch) 0;
#X array right 1.23787e+007 float 2;
#X coords 0 1 1.23787e+007 -1 200 140 1;
#X restore 290 381 graph;
#X msg 290 319 read -resize rightPingpong.wav right;
#X obj 37 345 soundfiler;
#N canvas 0 50 450 250 (subpatch) 0;
#X array left 1.23787e+007 float 2;
#X coords 0 1 1.23787e+007 -1 200 140 1;
#X restore 38 381 graph;
#X msg 37 319 read -resize leftPingpong.wav left;
#X msg 37 182 8.74503e+006;
#X msg 37 527 \; pd dsp 1 \;;
#X obj 7 5 cnv 15 100 30 empty empty 시작! 20 12 0 25 -262130 -66577
0;
#X obj 542 88 tgl 15 0 empty empty empty 17 7 0 10 -262144 -1 -1 0
1;
#X obj 542 139 part_head;
#X obj 542 113 gemhead 49;
#X msg 626 137 speed 0.3;
#X obj 136 79 gemwin;
#X msg 246 48 0 \, destroy;
#X msg 136 16 reset \, dimen 1000 500 \, create \, 1;
#X obj 542 439 part_render;
#X msg 646 488 draw line;
#X obj 552 383 tgl 15 0 empty empty empty 17 7 0 10 -262144 -1 -1 1
1;
#X msg 552 404 colorize \$1;
#X obj 645 383 tgl 15 0 empty empty empty 17 7 0 10 -262144 -1 -1 1
1;
#X msg 645 403 size \$1;
#X obj 542 460 translateXYZ 5 0 0;
#X msg 227 646 2.5;
#X msg 295 644 -2.5;
#X msg 360 644 -5;
#X msg 423 644 5;
#X obj 225 623 metro 2100;
#X obj 294 623 delay 520;
#X obj 360 623 delay 270;
#X obj 423 623 delay 710;
#X obj 558 625 delay 2100;
#X obj 658 625 delay 4200;
#X obj 750 625 delay 6300;
#X obj 837 626 delay 8400;
#X obj 914 626 delay 10500;
#X obj 996 626 delay 12600;
#X obj 1161 625 delay 16800;
#X obj 1080 626 delay 14700;
#X msg 1161 644 0;
#X msg 657 258 1 0 0;
#X msg 558 646 1 0.3 0;
#X msg 658 646 1 0.7 0;
#X msg 750 646 1 1 0;
#X msg 836 651 0.7 1 0.3;
#X msg 913 652 0.3 1 0.7;
#X msg 1005 652 0 1 1;
#X msg 1080 650 0 0.7 1;
#X obj 540 191 part_source 30;
#X obj 542 167 part_velocity sphere 0 0 0 1;
#X obj 542 256 part_killold 20;
#X obj 542 296 part_color 1 0 0 0 0 0;
#X msg 701 257 0.8 0.8 0.8;
#X obj 542 519 sphere 0.1 10;
#X obj 542 322 part_size 1;
#X obj 542 212 part_orbitpoint 0 0 0 0.8;
#X obj 169 48 delay 18800;
#X msg 322 39 \; pd dsp 0 \;;
#X connect 5 0 14 0;
#X connect 5 0 15 0;
#X connect 5 0 13 0;
#X connect 5 0 10 0;
#X connect 5 0 23 0;
#X connect 5 0 35 0;
#X connect 5 0 48 0;
#X connect 5 0 60 0;
#X connect 5 0 17 0;
#X connect 5 0 20 0;
#X connect 5 0 26 0;
#X connect 5 0 28 0;
#X connect 5 0 25 0;
#X connect 5 0 39 0;
#X connect 5 0 44 0;
#X connect 5 0 43 0;
#X connect 5 0 42 0;
#X connect 5 0 41 0;
#X connect 5 0 40 0;
#X connect 5 0 46 0;
#X connect 5 0 45 0;
#X connect 5 0 64 0;
#X connect 7 0 4 0;
#X connect 8 0 4 1;
#X connect 10 0 6 0;
#X connect 13 0 11 0;
#X connect 14 0 7 0;
#X connect 14 0 8 0;
#X connect 17 0 19 0;
#X connect 18 0 57 0;
#X connect 19 0 18 0;
#X connect 20 0 18 0;
#X connect 22 0 21 0;
#X connect 23 0 21 0;
#X connect 24 0 30 0;
#X connect 25 0 61 0;
#X connect 26 0 27 0;
#X connect 27 0 24 0;
#X connect 28 0 29 0;
#X connect 29 0 24 0;
#X connect 30 0 61 0;
#X connect 31 0 30 1;
#X connect 32 0 30 1;
#X connect 33 0 30 1;
#X connect 34 0 30 1;
#X connect 35 0 31 0;
#X connect 35 0 36 0;
#X connect 36 0 32 0;
#X connect 36 0 37 0;
#X connect 37 0 33 0;
#X connect 37 0 38 0;
#X connect 38 0 34 0;
#X connect 39 0 49 0;
#X connect 40 0 50 0;
#X connect 41 0 51 0;
#X connect 42 0 52 0;
#X connect 43 0 53 0;
#X connect 44 0 54 0;
#X connect 45 0 47 0;
#X connect 46 0 55 0;
#X connect 47 0 35 0;
#X connect 47 0 63 2;
#X connect 48 0 59 1;
#X connect 49 0 59 1;
#X connect 50 0 59 1;
#X connect 51 0 59 1;
#X connect 52 0 59 1;
#X connect 53 0 59 1;
#X connect 54 0 59 1;
#X connect 55 0 59 1;
#X connect 56 0 63 0;
#X connect 57 0 56 0;
#X connect 58 0 59 0;
#X connect 59 0 62 0;
#X connect 60 0 59 2;
#X connect 62 0 24 0;
#X connect 63 0 58 0;
#X connect 64 0 22 0;
#X connect 64 0 17 0;
#X connect 64 0 65 0;
