#N canvas 849 176 810 706 10;
#X obj 11 165 gemwin;
#X msg 12 117 reset \, dimen 1000 500 \, create \, 1;
#X msg 26 142 0 \, destroy;
#X msg 235 114 draw line;
#X obj 12 11 bng 15 250 50 0 empty empty empty 17 7 0 10 -262144 -1
-1;
#X obj 17 275 tgl 15 0 empty empty empty 17 7 0 10 -262144 -1 -1 0
1;
#X obj 16 354 alpha;
#X obj 17 294 gemhead 50;
#X obj 125 293 tgl 15 0 empty empty empty 17 7 0 10 -262144 -1 -1 0
1;
#X obj 150 330 + 1;
#X obj 125 311 metro 250;
#X obj 175 330 % 100;
#X obj 125 330 f;
#X obj 125 351 + 40;
#X obj 125 375 / 5;
#X obj 17 314 rotateXYZ 0 0 0;
#X obj 15 375 cylinder 2 60;
#X obj 134 159 tgl 15 0 empty empty empty 17 7 0 10 -262144 -1 -1 0
1;
#X obj 259 215 + 1;
#X obj 234 196 metro 250;
#X obj 234 215 f;
#X obj 234 236 / 127;
#X obj 16 335 colorRGB;
#X msg 92 268 1;
#X msg 157 268 1;
#X floatatom 189 268 5 0 0 0 - - -;
#X floatatom 121 267 5 0 0 0 - - -;
#X obj 284 215 % 63;
#X obj 159 214 + 1;
#X obj 134 195 metro 250;
#X obj 134 214 f;
#X obj 134 235 / 127;
#X obj 184 214 % 127;
#X obj 234 258 + 0.3;
#N canvas 0 50 450 250 (subpatch) 0;
#X array array 5.57453e+006 float 2;
#X coords 0 1 5.57453e+006 -1 200 140 1;
#X restore 332 141 graph;
#X obj 330 108 soundfiler;
#X msg 330 82 read -resize blackhole.wav array;
#X obj 241 301 tabplay~ array;
#X obj 241 322 output~;
#X msg 240 280 2.646e+006;
#X text 52 10 볼륨 100으로 올리고 옆에 버튼 누르세용
;
#X msg 233 138 \; pd dsp 1 \;;
#X connect 1 0 0 0;
#X connect 2 0 0 0;
#X connect 3 0 16 0;
#X connect 4 0 1 0;
#X connect 4 0 3 0;
#X connect 4 0 5 0;
#X connect 4 0 8 0;
#X connect 4 0 17 0;
#X connect 4 0 41 0;
#X connect 4 0 36 0;
#X connect 4 0 39 0;
#X connect 5 0 7 0;
#X connect 6 0 16 0;
#X connect 7 0 15 0;
#X connect 8 0 10 0;
#X connect 9 0 11 0;
#X connect 10 0 12 0;
#X connect 11 0 12 1;
#X connect 12 0 9 0;
#X connect 12 0 13 0;
#X connect 13 0 14 0;
#X connect 13 0 15 3;
#X connect 14 0 16 1;
#X connect 15 0 22 0;
#X connect 17 0 19 0;
#X connect 17 0 29 0;
#X connect 18 0 27 0;
#X connect 19 0 20 0;
#X connect 20 0 18 0;
#X connect 20 0 21 0;
#X connect 21 0 33 0;
#X connect 22 0 6 0;
#X connect 23 0 22 1;
#X connect 24 0 22 3;
#X connect 25 0 22 4;
#X connect 26 0 22 2;
#X connect 27 0 20 1;
#X connect 28 0 32 0;
#X connect 29 0 30 0;
#X connect 30 0 28 0;
#X connect 30 0 31 0;
#X connect 31 0 26 0;
#X connect 32 0 30 1;
#X connect 33 0 25 0;
#X connect 36 0 35 0;
#X connect 37 0 38 0;
#X connect 39 0 37 0;
